{
  "source": "C:\\Users\\Peter\\Desktop\\stuff\\MIUN\\quantitative_research\\video_compression\\videos\\BVI-HD\\BVI-HD_CDVL_videos\\ORIG\\TreeGrassFamily_1920x1080_30fps.mp4",
  "output": "C:\\Users\\Peter\\Desktop\\stuff\\MIUN\\quantitative_research\\video_compression\\compressed_videos\\BVI-HD\\hevc\\3\\TreeGrassFamily_1920x1080_30fps_hevc.mp4",
  "codec": "hevc",
  "ok": "Input #0, mov,mp4,m4a,3gp,3g2,mj2, from 'C:\\Users\\Peter\\Desktop\\stuff\\MIUN\\quantitative_research\\video_compression\\videos\\BVI-HD\\BVI-HD_CDVL_videos\\ORIG\\TreeGrassFamily_1920x1080_30fps.mp4':\n  Metadata:\n    major_brand     : isom\n    minor_version   : 512\n    compatible_brands: isomiso2avc1mp41\n    encoder         : Lavf54.28.101\n  Duration: 00:00:05.00, start: 0.000000, bitrate: 331787 kb/s\n  Stream #0:0[0x1](und): Video: h264 (High 4:4:4 Predictive) (avc1 / 0x31637661), yuv420p(progressive), 1920x1080, 331784 kb/s, 30 fps, 30 tbr, 30 tbn (default)\n    Metadata:\n      handler_name    : VideoHandler\n      vendor_id       : [0][0][0][0]\n[out#0/mp4 @ 0000022a39bcab00] Codec AVOption b:a (set bitrate (in bits/s)) has not been used for any stream. The most likely reason is either wrong type (e.g. a video option with no video streams) or that it is a private option of some decoder which was not actually used for any stream.\nStream mapping:\n  Stream #0:0 -> #0:0 (h264 (native) -> hevc (libx265))\nPress [q] to stop, [?] for help\n[libx265 @ 0000022a3a7ef040] Unknown option: \"aq-mode.\nx265 [info]: HEVC encoder version 4.1+190-8f11c33ac\nx265 [info]: build info [Windows][GCC 15.1.0][64 bit] 10bit\nx265 [info]: using cpu capabilities: MMX2 SSE2Fast LZCNT SSSE3 SSE4.2 AVX FMA3 BMI2 AVX2\nx265 [info]: Main 10 profile, Level-4 (Main tier)\nx265 [info]: Thread pool created using 12 threads\nx265 [info]: Slices                              : 1\nx265 [info]: frame threads / pool features       : 3 / wpp(17 rows)\nx265 [info]: Coding QT: max CU size, min CU size : 64 / 8\nx265 [info]: Residual QT: max TU size, max depth : 32 / 1 inter / 1 intra\nx265 [info]: ME / range / subpel / merge         : star / 57 / 3 / 3\nx265 [info]: Keyframe min / max / scenecut / bias  : 25 / 250 / 40 / 5.00 \nx265 [info]: Lookahead / bframes / badapt        : 25 / 4 / 2\nx265 [info]: b-pyramid / weightp / weightb       : 1 / 1 / 0\nx265 [info]: References / ref-limit  cu / depth  : 4 / on / on\nx265 [info]: AQ: mode / str / qg-size / cu-tree  : 2 / 1.0 / 32 / 1\nx265 [info]: Rate Control / qCompress            : ABR-3000 kbps / 0.60\nx265 [info]: VBV/HRD buffer / max-rate / init    : 3000 / 3000 / 0.750\nx265 [info]: tools: rect limit-modes rd=4 psy-rd=2.00 rdoq=2 psy-rdoq=1.00\nx265 [info]: tools: rskip mode=1 signhide tmvp strong-intra-smoothing lslices=4\nx265 [info]: tools: deblock sao dhdr10-info\nOutput #0, mp4, to 'C:\\Users\\Peter\\Desktop\\stuff\\MIUN\\quantitative_research\\video_compression\\compressed_videos\\BVI-HD\\hevc\\3\\TreeGrassFamily_1920x1080_30fps_hevc.mp4':\n  Metadata:\n    major_brand     : isom\n    minor_version   : 512\n    compatible_brands: isomiso2avc1mp41\n    encoder         : Lavf62.3.100\n  Stream #0:0(und): Video: hevc (hev1 / 0x31766568), yuv420p10le(tv, progressive), 1920x1080, q=2-31, 3000 kb/s, 30 fps, 15360 tbn (default)\n    Metadata:\n      encoder         : Lavc62.11.100 libx265\n      handler_name    : VideoHandler\n      vendor_id       : [0][0][0][0]\n    Side data:\n      cpb: bitrate max/min/avg: 3000000/0/3000000 buffer size: 3000000 vbv_delay: N/A\nframe=    0 fps=0.0 q=0.0 size=       0KiB time=N/A bitrate=N/A speed=N/A elapsed=0:00:01.12    \nframe=    0 fps=0.0 q=0.0 size=       0KiB time=N/A bitrate=N/A speed=N/A elapsed=0:00:01.66    \nframe=    0 fps=0.0 q=0.0 size=       0KiB time=N/A bitrate=N/A speed=N/A elapsed=0:00:02.18    \nframe=    0 fps=0.0 q=0.0 size=       0KiB time=N/A bitrate=N/A speed=N/A elapsed=0:00:02.70    \nframe=    0 fps=0.0 q=0.0 size=       0KiB time=N/A bitrate=N/A speed=N/A elapsed=0:00:03.25    \nframe=    0 fps=0.0 q=0.0 size=       0KiB time=N/A bitrate=N/A speed=N/A elapsed=0:00:03.78    \nframe=    0 fps=0.0 q=0.0 size=       0KiB time=N/A bitrate=N/A speed=N/A elapsed=0:00:04.30    \nframe=    0 fps=0.0 q=0.0 size=       0KiB time=N/A bitrate=N/A speed=N/A elapsed=0:00:04.82    \nframe=    0 fps=0.0 q=0.0 size=       0KiB time=N/A bitrate=N/A speed=N/A elapsed=0:00:05.35    \nframe=    0 fps=0.0 q=0.0 size=       0KiB time=N/A bitrate=N/A speed=N/A elapsed=0:00:05.87    \nframe=    0 fps=0.0 q=0.0 size=       0KiB time=N/A bitrate=N/A speed=N/A elapsed=0:00:06.39    \nframe=    0 fps=0.0 q=0.0 size=       0KiB time=N/A bitrate=N/A speed=N/A elapsed=0:00:06.91    \nframe=    0 fps=0.0 q=0.0 size=       0KiB time=N/A bitrate=N/A speed=N/A elapsed=0:00:07.42    \nframe=    0 fps=0.0 q=0.0 size=       0KiB time=N/A bitrate=N/A speed=N/A elapsed=0:00:07.93    \nframe=    1 fps=0.1 q=37.7 size=       0KiB time=-00:00:00.03 bitrate=N/A speed=N/A elapsed=0:00:08.44    \nframe=    3 fps=0.3 q=47.5 size=       0KiB time=00:00:00.03 bitrate=  10.6kbits/s speed=0.00372x elapsed=0:00:08.97    \nframe=    3 fps=0.3 q=47.5 size=       0KiB time=00:00:00.03 bitrate=  10.6kbits/s speed=0.00351x elapsed=0:00:09.50    \nframe=    4 fps=0.4 q=48.8 size=       0KiB time=00:00:00.06 bitrate=   5.3kbits/s speed=0.00665x elapsed=0:00:10.02    \nframe=    4 fps=0.4 q=48.8 size=       0KiB time=00:00:00.06 bitrate=   5.3kbits/s speed=0.00632x elapsed=0:00:10.54    \nframe=    5 fps=0.5 q=48.6 size=       0KiB time=00:00:00.10 bitrate=   3.5kbits/s speed=0.00904x elapsed=0:00:11.06    \nframe=    6 fps=0.5 q=47.7 size=       0KiB time=00:00:00.13 bitrate=   2.6kbits/s speed=0.0115x elapsed=0:00:11.59    \nframe=    6 fps=0.5 q=47.7 size=       0KiB time=00:00:00.13 bitrate=   2.6kbits/s speed=0.011x elapsed=0:00:12.11    \nframe=    7 fps=0.6 q=38.7 size=       0KiB time=00:00:00.16 bitrate=   2.1kbits/s speed=0.0132x elapsed=0:00:12.61    \nframe=    8 fps=0.6 q=44.2 size=       0KiB time=00:00:00.20 bitrate=   1.8kbits/s speed=0.0152x elapsed=0:00:13.15    \nframe=    8 fps=0.6 q=44.2 size=       0KiB time=00:00:00.20 bitrate=   1.8kbits/s speed=0.0146x elapsed=0:00:13.71    \nframe=    8 fps=0.6 q=44.2 size=       0KiB time=00:00:00.20 bitrate=   1.8kbits/s speed=0.014x elapsed=0:00:14.27    \nframe=    8 fps=0.5 q=44.2 size=       0KiB time=00:00:00.20 bitrate=   1.8kbits/s speed=0.0135x elapsed=0:00:14.79    \nframe=    9 fps=0.6 q=44.5 size=       0KiB time=00:00:00.23 bitrate=   1.5kbits/s speed=0.0152x elapsed=0:00:15.31    \nframe=    9 fps=0.6 q=44.5 size=       0KiB time=00:00:00.23 bitrate=   1.5kbits/s speed=0.0147x elapsed=0:00:15.83    \nframe=    9 fps=0.5 q=44.5 size=       0KiB time=00:00:00.23 bitrate=   1.5kbits/s speed=0.0143x elapsed=0:00:16.36    \nframe=   10 fps=0.6 q=45.0 size=       0KiB time=00:00:00.26 bitrate=   1.3kbits/s speed=0.0158x elapsed=0:00:16.89    \nframe=   10 fps=0.6 q=45.0 size=       0KiB time=00:00:00.26 bitrate=   1.3kbits/s speed=0.0153x elapsed=0:00:17.41    \nframe=   12 fps=0.7 q=41.8 size=       0KiB time=00:00:00.33 bitrate=   1.1kbits/s speed=0.0186x elapsed=0:00:17.95    \nframe=   12 fps=0.6 q=41.8 size=       0KiB time=00:00:00.33 bitrate=   1.1kbits/s speed=0.018x elapsed=0:00:18.47    \nframe=   12 fps=0.6 q=41.8 size=       0KiB time=00:00:00.33 bitrate=   1.1kbits/s speed=0.0175x elapsed=0:00:19.01    \nframe=   12 fps=0.6 q=41.8 size=       0KiB time=00:00:00.33 bitrate=   1.1kbits/s speed=0.0171x elapsed=0:00:19.53    \nframe=   13 fps=0.6 q=44.6 size=       0KiB time=00:00:00.36 bitrate=   1.0kbits/s speed=0.0183x elapsed=0:00:20.04    \nframe=   13 fps=0.6 q=44.6 size=       0KiB time=00:00:00.36 bitrate=   1.0kbits/s speed=0.0178x elapsed=0:00:20.56    \nframe=   13 fps=0.6 q=44.6 size=       0KiB time=00:00:00.36 bitrate=   1.0kbits/s speed=0.0174x elapsed=0:00:21.08    \nframe=   14 fps=0.6 q=44.4 size=       0KiB time=00:00:00.40 bitrate=   0.9kbits/s speed=0.0185x elapsed=0:00:21.62    \nframe=   14 fps=0.6 q=44.4 size=       0KiB time=00:00:00.40 bitrate=   0.9kbits/s speed=0.018x elapsed=0:00:22.17    \nframe=   14 fps=0.6 q=44.4 size=       0KiB time=00:00:00.40 bitrate=   0.9kbits/s speed=0.0176x elapsed=0:00:22.73    \nframe=   14 fps=0.6 q=44.4 size=       0KiB time=00:00:00.40 bitrate=   0.9kbits/s speed=0.0172x elapsed=0:00:23.26    \nframe=   14 fps=0.6 q=44.4 size=       0KiB time=00:00:00.40 bitrate=   0.9kbits/s speed=0.0168x elapsed=0:00:23.81    \nframe=   14 fps=0.6 q=44.4 size=       0KiB time=00:00:00.40 bitrate=   0.9kbits/s speed=0.0164x elapsed=0:00:24.42    \nframe=   14 fps=0.6 q=44.4 size=       0KiB time=00:00:00.40 bitrate=   0.9kbits/s speed=0.016x elapsed=0:00:25.07    \nframe=   15 fps=0.6 q=38.4 size=       0KiB time=00:00:00.43 bitrate=   0.8kbits/s speed=0.0169x elapsed=0:00:25.65    \nframe=   15 fps=0.6 q=38.4 size=       0KiB time=00:00:00.43 bitrate=   0.8kbits/s speed=0.0165x elapsed=0:00:26.27    \nframe=   15 fps=0.6 q=38.4 size=       0KiB time=00:00:00.43 bitrate=   0.8kbits/s speed=0.0161x elapsed=0:00:26.88    \nframe=   16 fps=0.6 q=41.7 size=       0KiB time=00:00:00.46 bitrate=   0.8kbits/s speed=0.017x elapsed=0:00:27.42    \nframe=   16 fps=0.6 q=41.7 size=       0KiB time=00:00:00.46 bitrate=   0.8kbits/s speed=0.0167x elapsed=0:00:27.95    \nframe=   16 fps=0.6 q=41.7 size=       0KiB time=00:00:00.46 bitrate=   0.8kbits/s speed=0.0164x elapsed=0:00:28.49    \nframe=   16 fps=0.6 q=41.7 size=       0KiB time=00:00:00.46 bitrate=   0.8kbits/s speed=0.0161x elapsed=0:00:29.01    \nframe=   17 fps=0.6 q=44.1 size=       0KiB time=00:00:00.50 bitrate=   0.7kbits/s speed=0.0169x elapsed=0:00:29.53    \nframe=   17 fps=0.6 q=44.1 size=       0KiB time=00:00:00.50 bitrate=   0.7kbits/s speed=0.0166x elapsed=0:00:30.07    \nframe=   17 fps=0.6 q=44.1 size=       0KiB time=00:00:00.50 bitrate=   0.7kbits/s speed=0.0163x elapsed=0:00:30.70    \nframe=   17 fps=0.5 q=44.1 size=       0KiB time=00:00:00.50 bitrate=   0.7kbits/s speed=0.0159x elapsed=0:00:31.35    \nframe=   17 fps=0.5 q=44.1 size=       0KiB time=00:00:00.50 bitrate=   0.7kbits/s speed=0.0156x elapsed=0:00:31.99    \nframe=   17 fps=0.5 q=44.1 size=       0KiB time=00:00:00.50 bitrate=   0.7kbits/s speed=0.0154x elapsed=0:00:32.52    \nframe=   17 fps=0.5 q=44.1 size=       0KiB time=00:00:00.50 bitrate=   0.7kbits/s speed=0.0151x elapsed=0:00:33.06    \nframe=   17 fps=0.5 q=44.1 size=       0KiB time=00:00:00.50 bitrate=   0.7kbits/s speed=0.0149x elapsed=0:00:33.62    \nframe=   17 fps=0.5 q=44.1 size=       0KiB time=00:00:00.50 bitrate=   0.7kbits/s speed=0.0146x elapsed=0:00:34.25    \nframe=   17 fps=0.5 q=44.1 size=       0KiB time=00:00:00.50 bitrate=   0.7kbits/s speed=0.0143x elapsed=0:00:34.84    \nframe=   17 fps=0.5 q=44.1 size=       0KiB time=00:00:00.50 bitrate=   0.7kbits/s speed=0.0141x elapsed=0:00:35.47    \nframe=   17 fps=0.5 q=44.1 size=       0KiB time=00:00:00.50 bitrate=   0.7kbits/s speed=0.0139x elapsed=0:00:36.02    \nframe=   17 fps=0.5 q=44.1 size=       0KiB time=00:00:00.50 bitrate=   0.7kbits/s speed=0.0136x elapsed=0:00:36.65    \nframe=   17 fps=0.5 q=44.1 size=       0KiB time=00:00:00.50 bitrate=   0.7kbits/s speed=0.0134x elapsed=0:00:37.24    \nframe=   18 fps=0.5 q=44.4 size=       0KiB time=00:00:00.53 bitrate=   0.7kbits/s speed=0.0141x elapsed=0:00:37.88    \nframe=   18 fps=0.5 q=44.4 size=       0KiB time=00:00:00.53 bitrate=   0.7kbits/s speed=0.0138x elapsed=0:00:38.51    \nframe=   18 fps=0.5 q=44.4 size=       0KiB time=00:00:00.53 bitrate=   0.7kbits/s speed=0.0137x elapsed=0:00:39.06    \nframe=   18 fps=0.5 q=44.4 size=       0KiB time=00:00:00.53 bitrate=   0.7kbits/s speed=0.0134x elapsed=0:00:39.65    \nframe=   18 fps=0.4 q=44.4 size=       0KiB time=00:00:00.53 bitrate=   0.7kbits/s speed=0.0133x elapsed=0:00:40.18    \nframe=   19 fps=0.5 q=38.5 size=       0KiB time=00:00:00.53 bitrate=   0.7kbits/s speed=0.0131x elapsed=0:00:40.71    \nframe=   19 fps=0.5 q=38.5 size=       0KiB time=00:00:00.56 bitrate=   0.6kbits/s speed=0.0137x elapsed=0:00:41.24    \nframe=   19 fps=0.5 q=38.5 size=       0KiB time=00:00:00.56 bitrate=   0.6kbits/s speed=0.0136x elapsed=0:00:41.77    \nframe=   20 fps=0.5 q=41.9 size=     256KiB time=00:00:00.60 bitrate=3495.8kbits/s speed=0.0142x elapsed=0:00:42.35    \nframe=   20 fps=0.5 q=41.9 size=     256KiB time=00:00:00.60 bitrate=3495.8kbits/s speed=0.014x elapsed=0:00:42.95    \nframe=   20 fps=0.5 q=41.9 size=     256KiB time=00:00:00.60 bitrate=3495.8kbits/s speed=0.0138x elapsed=0:00:43.53    \nframe=   20 fps=0.5 q=41.9 size=     256KiB time=00:00:00.60 bitrate=3495.8kbits/s speed=0.0136x elapsed=0:00:44.04    \nframe=   20 fps=0.4 q=41.9 size=     256KiB time=00:00:00.60 bitrate=3495.8kbits/s speed=0.0135x elapsed=0:00:44.56    \nframe=   20 fps=0.4 q=41.9 size=     256KiB time=00:00:00.60 bitrate=3495.8kbits/s speed=0.0133x elapsed=0:00:45.09    \nframe=   21 fps=0.5 q=44.5 size=     256KiB time=00:00:00.63 bitrate=3311.9kbits/s speed=0.0139x elapsed=0:00:45.66    \nframe=   21 fps=0.5 q=44.5 size=     256KiB time=00:00:00.63 bitrate=3311.9kbits/s speed=0.0137x elapsed=0:00:46.21    \nframe=   21 fps=0.4 q=44.5 size=     256KiB time=00:00:00.63 bitrate=3311.9kbits/s speed=0.0135x elapsed=0:00:46.74    \nframe=   21 fps=0.4 q=44.5 size=     256KiB time=00:00:00.63 bitrate=3311.9kbits/s speed=0.0134x elapsed=0:00:47.28    \nframe=   21 fps=0.4 q=44.5 size=     256KiB time=00:00:00.63 bitrate=3311.9kbits/s speed=0.0132x elapsed=0:00:47.84    \nframe=   22 fps=0.5 q=44.4 size=     256KiB time=00:00:00.66 bitrate=3146.3kbits/s speed=0.0138x elapsed=0:00:48.38    \nframe=   22 fps=0.4 q=44.4 size=     256KiB time=00:00:00.66 bitrate=3146.3kbits/s speed=0.0136x elapsed=0:00:48.92    \nframe=   22 fps=0.4 q=44.4 size=     256KiB time=00:00:00.66 bitrate=3146.3kbits/s speed=0.0135x elapsed=0:00:49.52    \nframe=   22 fps=0.4 q=44.4 size=     256KiB time=00:00:00.66 bitrate=3146.3kbits/s speed=0.0133x elapsed=0:00:50.09    \nframe=   23 fps=0.5 q=38.5 size=     256KiB time=00:00:00.70 bitrate=2996.4kbits/s speed=0.0138x elapsed=0:00:50.63    \nframe=   24 fps=0.5 q=41.8 size=     256KiB time=00:00:00.73 bitrate=2860.2kbits/s speed=0.0143x elapsed=0:00:51.14    \nframe=   24 fps=0.5 q=41.8 size=     256KiB time=00:00:00.73 bitrate=2860.2kbits/s speed=0.0142x elapsed=0:00:51.69    \nframe=   25 fps=0.5 q=44.4 size=     256KiB time=00:00:00.76 bitrate=2735.9kbits/s speed=0.0147x elapsed=0:00:52.22    \nframe=   25 fps=0.5 q=44.4 size=     256KiB time=00:00:00.76 bitrate=2735.9kbits/s speed=0.0145x elapsed=0:00:52.75    \nframe=   26 fps=0.5 q=44.5 size=     256KiB time=00:00:00.80 bitrate=2621.9kbits/s speed=0.015x elapsed=0:00:53.27    \nframe=   26 fps=0.5 q=44.5 size=     256KiB time=00:00:00.80 bitrate=2621.9kbits/s speed=0.0149x elapsed=0:00:53.82    \nframe=   26 fps=0.5 q=44.5 size=     256KiB time=00:00:00.80 bitrate=2621.9kbits/s speed=0.0147x elapsed=0:00:54.36    \nframe=   26 fps=0.5 q=44.5 size=     256KiB time=00:00:00.80 bitrate=2621.9kbits/s speed=0.0146x elapsed=0:00:54.90    \nframe=   26 fps=0.5 q=44.5 size=     256KiB time=00:00:00.80 bitrate=2621.9kbits/s speed=0.0144x elapsed=0:00:55.44    \nframe=   26 fps=0.5 q=44.5 size=     256KiB time=00:00:00.80 bitrate=2621.9kbits/s speed=0.0143x elapsed=0:00:55.96    \nframe=   26 fps=0.5 q=44.5 size=     256KiB time=00:00:00.80 bitrate=2621.9kbits/s speed=0.0142x elapsed=0:00:56.48    \nframe=   26 fps=0.5 q=44.5 size=     256KiB time=00:00:00.80 bitrate=2621.9kbits/s speed=0.014x elapsed=0:00:57.12    \nframe=   26 fps=0.5 q=44.5 size=     256KiB time=00:00:00.80 bitrate=2621.9kbits/s speed=0.0139x elapsed=0:00:57.70    \nframe=   26 fps=0.4 q=44.5 size=     256KiB time=00:00:00.80 bitrate=2621.9kbits/s speed=0.0137x elapsed=0:00:58.35    \nframe=   26 fps=0.4 q=44.5 size=     256KiB time=00:00:00.80 bitrate=2621.9kbits/s speed=0.0136x elapsed=0:00:58.99    \nframe=   26 fps=0.4 q=44.5 size=     256KiB time=00:00:00.80 bitrate=2621.9kbits/s speed=0.0134x elapsed=0:00:59.57    \nframe=   28 fps=0.5 q=41.8 size=     256KiB time=00:00:00.86 bitrate=2420.2kbits/s speed=0.0144x elapsed=0:01:00.11    \nframe=   28 fps=0.5 q=41.8 size=     256KiB time=00:00:00.86 bitrate=2420.2kbits/s speed=0.0143x elapsed=0:01:00.64    \nframe=   28 fps=0.5 q=41.8 size=     256KiB time=00:00:00.86 bitrate=2420.2kbits/s speed=0.0142x elapsed=0:01:01.23    \nframe=   28 fps=0.5 q=41.8 size=     256KiB time=00:00:00.86 bitrate=2420.2kbits/s speed=0.014x elapsed=0:01:01.77    \nframe=   28 fps=0.4 q=41.8 size=     256KiB time=00:00:00.86 bitrate=2420.2kbits/s speed=0.0139x elapsed=0:01:02.29    \nframe=   28 fps=0.4 q=41.8 size=     256KiB time=00:00:00.86 bitrate=2420.2kbits/s speed=0.0138x elapsed=0:01:02.85    \nframe=   28 fps=0.4 q=41.8 size=     256KiB time=00:00:00.86 bitrate=2420.2kbits/s speed=0.0137x elapsed=0:01:03.40    \nframe=   28 fps=0.4 q=41.8 size=     256KiB time=00:00:00.86 bitrate=2420.2kbits/s speed=0.0136x elapsed=0:01:03.95    \nframe=   28 fps=0.4 q=41.8 size=     256KiB time=00:00:00.86 bitrate=2420.2kbits/s speed=0.0134x elapsed=0:01:04.54    \nframe=   29 fps=0.4 q=44.8 size=     256KiB time=00:00:00.90 bitrate=2330.6kbits/s speed=0.0138x elapsed=0:01:05.12    \nframe=   29 fps=0.4 q=44.8 size=     256KiB time=00:00:00.90 bitrate=2330.6kbits/s speed=0.0137x elapsed=0:01:05.67    \nframe=   29 fps=0.4 q=44.8 size=     256KiB time=00:00:00.90 bitrate=2330.6kbits/s speed=0.0136x elapsed=0:01:06.25    \nframe=   29 fps=0.4 q=44.8 size=     256KiB time=00:00:00.90 bitrate=2330.6kbits/s speed=0.0135x elapsed=0:01:06.79    \nframe=   29 fps=0.4 q=44.8 size=     256KiB time=00:00:00.90 bitrate=2330.6kbits/s speed=0.0134x elapsed=0:01:07.31    \nframe=   29 fps=0.4 q=44.8 size=     256KiB time=00:00:00.90 bitrate=2330.6kbits/s speed=0.0133x elapsed=0:01:07.85    \nframe=   29 fps=0.4 q=44.8 size=     256KiB time=00:00:00.90 bitrate=2330.6kbits/s speed=0.0132x elapsed=0:01:08.41    \nframe=   30 fps=0.4 q=44.7 size=     256KiB time=00:00:00.93 bitrate=2247.3kbits/s speed=0.0135x elapsed=0:01:08.94    \nframe=   30 fps=0.4 q=44.7 size=     256KiB time=00:00:00.93 bitrate=2247.3kbits/s speed=0.0134x elapsed=0:01:09.47    \nframe=   30 fps=0.4 q=44.7 size=     256KiB time=00:00:00.93 bitrate=2247.3kbits/s speed=0.0133x elapsed=0:01:09.98    \nframe=   30 fps=0.4 q=44.7 size=     256KiB time=00:00:00.93 bitrate=2247.3kbits/s speed=0.0132x elapsed=0:01:10.54    \nframe=   30 fps=0.4 q=44.7 size=     256KiB time=00:00:00.93 bitrate=2247.3kbits/s speed=0.0131x elapsed=0:01:11.07    \nframe=   31 fps=0.4 q=38.6 size=     256KiB time=00:00:00.96 bitrate=2169.8kbits/s speed=0.0135x elapsed=0:01:11.59    \nframe=   31 fps=0.4 q=38.6 size=     256KiB time=00:00:00.96 bitrate=2169.8kbits/s speed=0.0134x elapsed=0:01:12.11    \nframe=   32 fps=0.4 q=42.2 size=     256KiB time=00:00:01.00 bitrate=2097.5kbits/s speed=0.0138x elapsed=0:01:12.63    \nframe=   32 fps=0.4 q=42.2 size=     256KiB time=00:00:01.00 bitrate=2097.5kbits/s speed=0.0137x elapsed=0:01:13.19    \nframe=   32 fps=0.4 q=42.2 size=     256KiB time=00:00:01.00 bitrate=2097.5kbits/s speed=0.0136x elapsed=0:01:13.73    \nframe=   32 fps=0.4 q=42.2 size=     256KiB time=00:00:01.00 bitrate=2097.5kbits/s speed=0.0135x elapsed=0:01:14.29    \nframe=   32 fps=0.4 q=42.2 size=     256KiB time=00:00:01.00 bitrate=2097.5kbits/s speed=0.0134x elapsed=0:01:14.86    \nframe=   32 fps=0.4 q=42.2 size=     256KiB time=00:00:01.00 bitrate=2097.5kbits/s speed=0.0133x elapsed=0:01:15.39    \nframe=   33 fps=0.4 q=44.5 size=     256KiB time=00:00:01.03 bitrate=2029.8kbits/s speed=0.0136x elapsed=0:01:15.92    \nframe=   33 fps=0.4 q=44.5 size=     256KiB time=00:00:01.03 bitrate=2029.8kbits/s speed=0.0135x elapsed=0:01:16.44    \nframe=   33 fps=0.4 q=44.5 size=     256KiB time=00:00:01.03 bitrate=2029.8kbits/s speed=0.0134x elapsed=0:01:16.96    \nframe=   33 fps=0.4 q=44.5 size=     256KiB time=00:00:01.03 bitrate=2029.8kbits/s speed=0.0133x elapsed=0:01:17.50    \nframe=   33 fps=0.4 q=44.5 size=     256KiB time=00:00:01.03 bitrate=2029.8kbits/s speed=0.0132x elapsed=0:01:18.02    \nframe=   33 fps=0.4 q=44.5 size=     256KiB time=00:00:01.03 bitrate=2029.8kbits/s speed=0.0132x elapsed=0:01:18.58    \nframe=   33 fps=0.4 q=44.5 size=     256KiB time=00:00:01.03 bitrate=2029.8kbits/s speed=0.0131x elapsed=0:01:19.13    \nframe=   34 fps=0.4 q=44.6 size=     256KiB time=00:00:01.06 bitrate=1966.4kbits/s speed=0.0134x elapsed=0:01:19.72    \nframe=   34 fps=0.4 q=44.6 size=     256KiB time=00:00:01.06 bitrate=1966.4kbits/s speed=0.0133x elapsed=0:01:20.25    \nframe=   34 fps=0.4 q=44.6 size=     256KiB time=00:00:01.06 bitrate=1966.4kbits/s speed=0.0132x elapsed=0:01:20.76    \nframe=   35 fps=0.4 q=38.5 size=     256KiB time=00:00:01.10 bitrate=1906.8kbits/s speed=0.0135x elapsed=0:01:21.30    \nframe=   35 fps=0.4 q=38.5 size=     256KiB time=00:00:01.10 bitrate=1906.8kbits/s speed=0.0134x elapsed=0:01:21.83    \nframe=   36 fps=0.4 q=42.0 size=     256KiB time=00:00:01.13 bitrate=1850.7kbits/s speed=0.0138x elapsed=0:01:22.35    \nframe=   36 fps=0.4 q=42.0 size=     256KiB time=00:00:01.13 bitrate=1850.7kbits/s speed=0.0137x elapsed=0:01:22.92    \nframe=   36 fps=0.4 q=42.0 size=     256KiB time=00:00:01.13 bitrate=1850.7kbits/s speed=0.0136x elapsed=0:01:23.47    \nframe=   37 fps=0.4 q=44.5 size=     256KiB time=00:00:01.16 bitrate=1797.9kbits/s speed=0.0139x elapsed=0:01:24.01    \nframe=   37 fps=0.4 q=44.5 size=     256KiB time=00:00:01.16 bitrate=1797.9kbits/s speed=0.0138x elapsed=0:01:24.54    \nframe=   37 fps=0.4 q=44.5 size=     256KiB time=00:00:01.16 bitrate=1797.9kbits/s speed=0.0137x elapsed=0:01:25.08    \nframe=   37 fps=0.4 q=44.5 size=     256KiB time=00:00:01.16 bitrate=1797.9kbits/s speed=0.0136x elapsed=0:01:25.64    \nframe=   37 fps=0.4 q=44.5 size=     256KiB time=00:00:01.16 bitrate=1797.9kbits/s speed=0.0135x elapsed=0:01:26.19    \nframe=   38 fps=0.4 q=44.5 size=     256KiB time=00:00:01.20 bitrate=1747.9kbits/s speed=0.0138x elapsed=0:01:26.75    \nframe=   38 fps=0.4 q=44.5 size=     256KiB time=00:00:01.20 bitrate=1747.9kbits/s speed=0.0137x elapsed=0:01:27.29    \nframe=   38 fps=0.4 q=44.5 size=     256KiB time=00:00:01.20 bitrate=1747.9kbits/s speed=0.0137x elapsed=0:01:27.86    \nframe=   38 fps=0.4 q=44.5 size=     256KiB time=00:00:01.20 bitrate=1747.9kbits/s speed=0.0136x elapsed=0:01:28.44    \nframe=   38 fps=0.4 q=44.5 size=     256KiB time=00:00:01.20 bitrate=1747.9kbits/s speed=0.0135x elapsed=0:01:29.04    \nframe=   38 fps=0.4 q=44.5 size=     256KiB time=00:00:01.20 bitrate=1747.9kbits/s speed=0.0134x elapsed=0:01:29.56    \nframe=   38 fps=0.4 q=44.5 size=     256KiB time=00:00:01.20 bitrate=1747.9kbits/s speed=0.0133x elapsed=0:01:30.08    \nframe=   38 fps=0.4 q=44.5 size=     256KiB time=00:00:01.20 bitrate=1747.9kbits/s speed=0.0132x elapsed=0:01:30.59    \nframe=   38 fps=0.4 q=44.5 size=     256KiB time=00:00:01.20 bitrate=1747.9kbits/s speed=0.0132x elapsed=0:01:31.11    \nframe=   39 fps=0.4 q=38.6 size=     256KiB time=00:00:01.23 bitrate=1700.7kbits/s speed=0.0135x elapsed=0:01:31.62    \nframe=   39 fps=0.4 q=38.6 size=     256KiB time=00:00:01.23 bitrate=1700.7kbits/s speed=0.0134x elapsed=0:01:32.18    \nframe=   40 fps=0.4 q=42.0 size=     256KiB time=00:00:01.26 bitrate=1655.9kbits/s speed=0.0137x elapsed=0:01:32.76    \nframe=   40 fps=0.4 q=42.0 size=     256KiB time=00:00:01.26 bitrate=1655.9kbits/s speed=0.0136x elapsed=0:01:33.28    \nframe=   41 fps=0.4 q=44.6 size=     256KiB time=00:00:01.30 bitrate=1613.5kbits/s speed=0.0139x elapsed=0:01:33.79    \nframe=   41 fps=0.4 q=44.6 size=     256KiB time=00:00:01.30 bitrate=1613.5kbits/s speed=0.0138x elapsed=0:01:34.34    \nframe=   41 fps=0.4 q=44.6 size=     256KiB time=00:00:01.30 bitrate=1613.5kbits/s speed=0.0137x elapsed=0:01:34.87    \nframe=   41 fps=0.4 q=44.6 size=     256KiB time=00:00:01.30 bitrate=1613.5kbits/s speed=0.0136x elapsed=0:01:35.44    \nframe=   41 fps=0.4 q=44.6 size=     256KiB time=00:00:01.30 bitrate=1613.5kbits/s speed=0.0135x elapsed=0:01:36.02    \nframe=   41 fps=0.4 q=44.6 size=     256KiB time=00:00:01.30 bitrate=1613.5kbits/s speed=0.0135x elapsed=0:01:36.56    \nframe=   42 fps=0.4 q=44.5 size=     512KiB time=00:00:01.33 bitrate=3146.0kbits/s speed=0.0137x elapsed=0:01:37.07    \nframe=   42 fps=0.4 q=44.5 size=     512KiB time=00:00:01.33 bitrate=3146.0kbits/s speed=0.0137x elapsed=0:01:37.61    \nframe=   44 fps=0.4 q=42.2 size=     512KiB time=00:00:01.40 bitrate=2996.2kbits/s speed=0.0143x elapsed=0:01:38.17    \nframe=   44 fps=0.4 q=42.2 size=     512KiB time=00:00:01.40 bitrate=2996.2kbits/s speed=0.0142x elapsed=0:01:38.68    \nframe=   44 fps=0.4 q=42.2 size=     512KiB time=00:00:01.40 bitrate=2996.2kbits/s speed=0.0141x elapsed=0:01:39.22    \nframe=   44 fps=0.4 q=42.2 size=     512KiB time=00:00:01.40 bitrate=2996.2kbits/s speed=0.014x elapsed=0:01:39.79    \nframe=   44 fps=0.4 q=42.2 size=     512KiB time=00:00:01.40 bitrate=2996.2kbits/s speed=0.014x elapsed=0:01:40.35    \nframe=   44 fps=0.4 q=42.2 size=     512KiB time=00:00:01.40 bitrate=2996.2kbits/s speed=0.0139x elapsed=0:01:41.00    \nframe=   45 fps=0.4 q=44.6 size=     512KiB time=00:00:01.43 bitrate=2926.5kbits/s speed=0.0141x elapsed=0:01:41.69    \nframe=   45 fps=0.4 q=44.6 size=     512KiB time=00:00:01.43 bitrate=2926.5kbits/s speed=0.014x elapsed=0:01:42.49    \nframe=   45 fps=0.4 q=44.6 size=     512KiB time=00:00:01.43 bitrate=2926.5kbits/s speed=0.0139x elapsed=0:01:43.26    \nframe=   45 fps=0.4 q=44.6 size=     512KiB time=00:00:01.43 bitrate=2926.5kbits/s speed=0.0138x elapsed=0:01:43.88    \nframe=   46 fps=0.4 q=44.4 size=     512KiB time=00:00:01.43 bitrate=2926.5kbits/s speed=0.0137x elapsed=0:01:44.43    \nframe=   46 fps=0.4 q=44.4 size=     512KiB time=00:00:01.46 bitrate=2860.0kbits/s speed=0.014x elapsed=0:01:45.05    \nframe=   46 fps=0.4 q=44.4 size=     512KiB time=00:00:01.46 bitrate=2860.0kbits/s speed=0.0139x elapsed=0:01:45.66    \nframe=   46 fps=0.4 q=44.4 size=     512KiB time=00:00:01.46 bitrate=2860.0kbits/s speed=0.0138x elapsed=0:01:46.18    \nframe=   46 fps=0.4 q=44.4 size=     512KiB time=00:00:01.46 bitrate=2860.0kbits/s speed=0.0137x elapsed=0:01:46.71    \nframe=   46 fps=0.4 q=44.4 size=     512KiB time=00:00:01.46 bitrate=2860.0kbits/s speed=0.0137x elapsed=0:01:47.25    \nframe=   46 fps=0.4 q=44.4 size=     512KiB time=00:00:01.46 bitrate=2860.0kbits/s speed=0.0136x elapsed=0:01:47.79    \nframe=   46 fps=0.4 q=44.4 size=     512KiB time=00:00:01.46 bitrate=2860.0kbits/s speed=0.0135x elapsed=0:01:48.35    \nframe=   46 fps=0.4 q=44.4 size=     512KiB time=00:00:01.46 bitrate=2860.0kbits/s speed=0.0135x elapsed=0:01:49.00    \nframe=   46 fps=0.4 q=44.4 size=     512KiB time=00:00:01.46 bitrate=2860.0kbits/s speed=0.0134x elapsed=0:01:49.61    \nframe=   46 fps=0.4 q=44.4 size=     512KiB time=00:00:01.46 bitrate=2860.0kbits/s speed=0.0133x elapsed=0:01:50.22    \nframe=   46 fps=0.4 q=44.4 size=     512KiB time=00:00:01.46 bitrate=2860.0kbits/s speed=0.0132x elapsed=0:01:50.85    \nframe=   48 fps=0.4 q=42.1 size=     512KiB time=00:00:01.53 bitrate=2735.6kbits/s speed=0.0138x elapsed=0:01:51.40    \nframe=   48 fps=0.4 q=42.1 size=     512KiB time=00:00:01.53 bitrate=2735.6kbits/s speed=0.0137x elapsed=0:01:51.97    \nframe=   48 fps=0.4 q=42.1 size=     512KiB time=00:00:01.53 bitrate=2735.6kbits/s speed=0.0136x elapsed=0:01:52.73    \nframe=   48 fps=0.4 q=42.1 size=     512KiB time=00:00:01.53 bitrate=2735.6kbits/s speed=0.0135x elapsed=0:01:53.33    \nframe=   48 fps=0.4 q=42.1 size=     512KiB time=00:00:01.53 bitrate=2735.6kbits/s speed=0.0135x elapsed=0:01:53.87    \nframe=   48 fps=0.4 q=42.1 size=     512KiB time=00:00:01.53 bitrate=2735.6kbits/s speed=0.0134x elapsed=0:01:54.53    \nframe=   49 fps=0.4 q=44.5 size=     512KiB time=00:00:01.56 bitrate=2677.4kbits/s speed=0.0136x elapsed=0:01:55.20    \nframe=   49 fps=0.4 q=44.5 size=     512KiB time=00:00:01.56 bitrate=2677.4kbits/s speed=0.0135x elapsed=0:01:55.83    \nframe=   49 fps=0.4 q=44.5 size=     512KiB time=00:00:01.56 bitrate=2677.4kbits/s speed=0.0135x elapsed=0:01:56.35    \nframe=   49 fps=0.4 q=44.5 size=     512KiB time=00:00:01.56 bitrate=2677.4kbits/s speed=0.0134x elapsed=0:01:56.86    \nframe=   49 fps=0.4 q=44.5 size=     512KiB time=00:00:01.56 bitrate=2677.4kbits/s speed=0.0133x elapsed=0:01:57.41    \nframe=   49 fps=0.4 q=44.5 size=     512KiB time=00:00:01.56 bitrate=2677.4kbits/s speed=0.0133x elapsed=0:01:57.95    \nframe=   49 fps=0.4 q=44.5 size=     512KiB time=00:00:01.56 bitrate=2677.4kbits/s speed=0.0132x elapsed=0:01:58.51    \nframe=   49 fps=0.4 q=44.5 size=     512KiB time=00:00:01.56 bitrate=2677.4kbits/s speed=0.0132x elapsed=0:01:59.05    \nframe=   50 fps=0.4 q=44.7 size=     512KiB time=00:00:01.60 bitrate=2621.7kbits/s speed=0.0134x elapsed=0:01:59.60    \nframe=   50 fps=0.4 q=44.7 size=     512KiB time=00:00:01.60 bitrate=2621.7kbits/s speed=0.0133x elapsed=0:02:00.19    \nframe=   50 fps=0.4 q=44.7 size=     512KiB time=00:00:01.60 bitrate=2621.7kbits/s speed=0.0132x elapsed=0:02:00.82    \nframe=   52 fps=0.4 q=42.1 size=     512KiB time=00:00:01.66 bitrate=2516.8kbits/s speed=0.0137x elapsed=0:02:01.37    \nframe=   52 fps=0.4 q=42.1 size=     512KiB time=00:00:01.66 bitrate=2516.8kbits/s speed=0.0137x elapsed=0:02:01.92    \nframe=   52 fps=0.4 q=42.1 size=     512KiB time=00:00:01.66 bitrate=2516.8kbits/s speed=0.0136x elapsed=0:02:02.49    \nframe=   52 fps=0.4 q=42.1 size=     512KiB time=00:00:01.66 bitrate=2516.8kbits/s speed=0.0135x elapsed=0:02:03.06    \nframe=   52 fps=0.4 q=42.1 size=     512KiB time=00:00:01.66 bitrate=2516.8kbits/s speed=0.0135x elapsed=0:02:03.60    \nframe=   52 fps=0.4 q=42.1 size=     512KiB time=00:00:01.66 bitrate=2516.8kbits/s speed=0.0134x elapsed=0:02:04.23    \nframe=   52 fps=0.4 q=42.1 size=     512KiB time=00:00:01.66 bitrate=2516.8kbits/s speed=0.0134x elapsed=0:02:04.79    \nframe=   52 fps=0.4 q=42.1 size=     512KiB time=00:00:01.66 bitrate=2516.8kbits/s speed=0.0133x elapsed=0:02:05.40    \nframe=   52 fps=0.4 q=42.1 size=     512KiB time=00:00:01.66 bitrate=2516.8kbits/s speed=0.0132x elapsed=0:02:06.04    \nframe=   52 fps=0.4 q=42.1 size=     512KiB time=00:00:01.66 bitrate=2516.8kbits/s speed=0.0132x elapsed=0:02:06.65    \nframe=   52 fps=0.4 q=42.1 size=     512KiB time=00:00:01.66 bitrate=2516.8kbits/s speed=0.0131x elapsed=0:02:07.24    \nframe=   54 fps=0.4 q=44.7 size=     512KiB time=00:00:01.73 bitrate=2420.0kbits/s speed=0.0136x elapsed=0:02:07.81    \nframe=   55 fps=0.4 q=38.6 size=     512KiB time=00:00:01.76 bitrate=2374.3kbits/s speed=0.0138x elapsed=0:02:08.41    \nframe=   56 fps=0.4 q=41.5 size=     512KiB time=00:00:01.80 bitrate=2330.4kbits/s speed=0.014x elapsed=0:02:08.95    \nframe=   57 fps=0.4 q=44.6 size=     512KiB time=00:00:01.83 bitrate=2288.0kbits/s speed=0.0142x elapsed=0:02:09.49    \nframe=   57 fps=0.4 q=44.6 size=     512KiB time=00:00:01.83 bitrate=2288.0kbits/s speed=0.0141x elapsed=0:02:10.04    \nframe=   57 fps=0.4 q=44.6 size=     512KiB time=00:00:01.83 bitrate=2288.0kbits/s speed=0.014x elapsed=0:02:10.58    \nframe=   57 fps=0.4 q=44.6 size=     512KiB time=00:00:01.83 bitrate=2288.0kbits/s speed=0.014x elapsed=0:02:11.19    \nframe=   57 fps=0.4 q=44.6 size=     512KiB time=00:00:01.83 bitrate=2288.0kbits/s speed=0.0139x elapsed=0:02:11.79    \nframe=   57 fps=0.4 q=44.6 size=     512KiB time=00:00:01.83 bitrate=2288.0kbits/s speed=0.0138x elapsed=0:02:12.38    \nframe=   57 fps=0.4 q=44.6 size=     512KiB time=00:00:01.83 bitrate=2288.0kbits/s speed=0.0138x elapsed=0:02:13.15    \nframe=   57 fps=0.4 q=44.6 size=     512KiB time=00:00:01.83 bitrate=2288.0kbits/s speed=0.0137x elapsed=0:02:13.83    \nframe=   57 fps=0.4 q=44.6 size=     512KiB time=00:00:01.83 bitrate=2288.0kbits/s speed=0.0136x elapsed=0:02:14.52    \nframe=   57 fps=0.4 q=44.6 size=     512KiB time=00:00:01.83 bitrate=2288.0kbits/s speed=0.0136x elapsed=0:02:15.14    \nframe=   57 fps=0.4 q=44.6 size=     512KiB time=00:00:01.83 bitrate=2288.0kbits/s speed=0.0135x elapsed=0:02:15.68    \nframe=   57 fps=0.4 q=44.6 size=     512KiB time=00:00:01.83 bitrate=2288.0kbits/s speed=0.0134x elapsed=0:02:16.35    \nframe=   57 fps=0.4 q=44.6 size=     512KiB time=00:00:01.83 bitrate=2288.0kbits/s speed=0.0134x elapsed=0:02:17.12    \nframe=   58 fps=0.4 q=44.6 size=     512KiB time=00:00:01.86 bitrate=2247.1kbits/s speed=0.0135x elapsed=0:02:17.76    \nframe=   58 fps=0.4 q=44.6 size=     512KiB time=00:00:01.86 bitrate=2247.1kbits/s speed=0.0135x elapsed=0:02:18.47    \nframe=   58 fps=0.4 q=44.6 size=     512KiB time=00:00:01.86 bitrate=2247.1kbits/s speed=0.0134x elapsed=0:02:19.00    \nframe=   58 fps=0.4 q=44.6 size=     512KiB time=00:00:01.86 bitrate=2247.1kbits/s speed=0.0134x elapsed=0:02:19.63    \nframe=   58 fps=0.4 q=44.6 size=     512KiB time=00:00:01.86 bitrate=2247.1kbits/s speed=0.0133x elapsed=0:02:20.24    \nframe=   58 fps=0.4 q=44.6 size=     512KiB time=00:00:01.86 bitrate=2247.1kbits/s speed=0.0133x elapsed=0:02:20.75    \nframe=   58 fps=0.4 q=44.6 size=     512KiB time=00:00:01.86 bitrate=2247.1kbits/s speed=0.0132x elapsed=0:02:21.29    \nframe=   60 fps=0.4 q=42.2 size=     512KiB time=00:00:01.93 bitrate=2169.7kbits/s speed=0.0136x elapsed=0:02:21.95    \nframe=   60 fps=0.4 q=42.2 size=     512KiB time=00:00:01.93 bitrate=2169.7kbits/s speed=0.0136x elapsed=0:02:22.48    \nframe=   60 fps=0.4 q=42.2 size=     512KiB time=00:00:01.93 bitrate=2169.7kbits/s speed=0.0135x elapsed=0:02:23.04    \nframe=   61 fps=0.4 q=44.7 size=     512KiB time=00:00:01.96 bitrate=2132.9kbits/s speed=0.0137x elapsed=0:02:23.57    \nframe=   62 fps=0.4 q=44.6 size=     512KiB time=00:00:02.00 bitrate=2097.3kbits/s speed=0.0139x elapsed=0:02:24.12    \nframe=   62 fps=0.4 q=44.6 size=     512KiB time=00:00:02.00 bitrate=2097.3kbits/s speed=0.0138x elapsed=0:02:24.66    \nframe=   62 fps=0.4 q=44.6 size=     512KiB time=00:00:02.00 bitrate=2097.3kbits/s speed=0.0138x elapsed=0:02:25.21    \nframe=   63 fps=0.4 q=38.7 size=     512KiB time=00:00:02.03 bitrate=2062.9kbits/s speed=0.014x elapsed=0:02:25.75    \nframe=   63 fps=0.4 q=38.7 size=     512KiB time=00:00:02.03 bitrate=2062.9kbits/s speed=0.0139x elapsed=0:02:26.29    \nframe=   63 fps=0.4 q=38.7 size=     512KiB time=00:00:02.03 bitrate=2062.9kbits/s speed=0.0138x elapsed=0:02:26.82    \nframe=   63 fps=0.4 q=38.7 size=     512KiB time=00:00:02.03 bitrate=2062.9kbits/s speed=0.0138x elapsed=0:02:27.37    \nframe=   63 fps=0.4 q=38.7 size=     512KiB time=00:00:02.03 bitrate=2062.9kbits/s speed=0.0137x elapsed=0:02:27.88    \nframe=   64 fps=0.4 q=42.2 size=     768KiB time=00:00:02.06 bitrate=3044.4kbits/s speed=0.0139x elapsed=0:02:28.42    \nframe=   64 fps=0.4 q=42.2 size=     768KiB time=00:00:02.06 bitrate=3044.4kbits/s speed=0.0139x elapsed=0:02:28.94    \nframe=   64 fps=0.4 q=42.2 size=     768KiB time=00:00:02.06 bitrate=3044.4kbits/s speed=0.0138x elapsed=0:02:29.50    \nframe=   65 fps=0.4 q=44.6 size=     768KiB time=00:00:02.10 bitrate=2996.1kbits/s speed=0.014x elapsed=0:02:30.04    \nframe=   65 fps=0.4 q=44.6 size=     768KiB time=00:00:02.10 bitrate=2996.1kbits/s speed=0.0139x elapsed=0:02:30.63    \nframe=   65 fps=0.4 q=44.6 size=     768KiB time=00:00:02.10 bitrate=2996.1kbits/s speed=0.0139x elapsed=0:02:31.17    \nframe=   66 fps=0.4 q=44.7 size=     768KiB time=00:00:02.13 bitrate=2949.3kbits/s speed=0.0141x elapsed=0:02:31.75    \nframe=   66 fps=0.4 q=44.7 size=     768KiB time=00:00:02.13 bitrate=2949.3kbits/s speed=0.014x elapsed=0:02:32.26    \nframe=   67 fps=0.4 q=38.6 size=     768KiB time=00:00:02.16 bitrate=2903.9kbits/s speed=0.0142x elapsed=0:02:32.81    \nframe=   67 fps=0.4 q=38.6 size=     768KiB time=00:00:02.16 bitrate=2903.9kbits/s speed=0.0141x elapsed=0:02:33.36    \nframe=   67 fps=0.4 q=38.6 size=     768KiB time=00:00:02.16 bitrate=2903.9kbits/s speed=0.0141x elapsed=0:02:33.89    \nframe=   68 fps=0.4 q=42.0 size=     768KiB time=00:00:02.20 bitrate=2859.9kbits/s speed=0.0142x elapsed=0:02:34.40    \nframe=   68 fps=0.4 q=42.0 size=     768KiB time=00:00:02.20 bitrate=2859.9kbits/s speed=0.0142x elapsed=0:02:34.94    \nframe=   68 fps=0.4 q=42.0 size=     768KiB time=00:00:02.20 bitrate=2859.9kbits/s speed=0.0141x elapsed=0:02:35.51    \nframe=   70 fps=0.4 q=44.5 size=     768KiB time=00:00:02.26 bitrate=2775.8kbits/s speed=0.0145x elapsed=0:02:36.05    \nframe=   70 fps=0.4 q=44.5 size=     768KiB time=00:00:02.26 bitrate=2775.8kbits/s speed=0.0145x elapsed=0:02:36.57    \nframe=   71 fps=0.5 q=38.8 size=     768KiB time=00:00:02.30 bitrate=2735.6kbits/s speed=0.0146x elapsed=0:02:37.11    \nframe=   72 fps=0.5 q=42.1 size=     768KiB time=00:00:02.30 bitrate=2735.6kbits/s speed=0.0146x elapsed=0:02:37.70    \nframe=   72 fps=0.5 q=42.1 size=     768KiB time=00:00:02.33 bitrate=2696.5kbits/s speed=0.0147x elapsed=0:02:38.31    \nframe=   72 fps=0.5 q=42.1 size=     768KiB time=00:00:02.33 bitrate=2696.5kbits/s speed=0.0147x elapsed=0:02:38.89    \nframe=   73 fps=0.5 q=44.3 size=     768KiB time=00:00:02.36 bitrate=2658.5kbits/s speed=0.0148x elapsed=0:02:39.54    \nframe=   73 fps=0.5 q=44.3 size=     768KiB time=00:00:02.36 bitrate=2658.5kbits/s speed=0.0148x elapsed=0:02:40.29    \nframe=   73 fps=0.5 q=44.3 size=     768KiB time=00:00:02.36 bitrate=2658.5kbits/s speed=0.0147x elapsed=0:02:41.00    \nframe=   73 fps=0.5 q=44.3 size=     768KiB time=00:00:02.36 bitrate=2658.5kbits/s speed=0.0146x elapsed=0:02:41.77    \nframe=   73 fps=0.4 q=44.3 size=     768KiB time=00:00:02.36 bitrate=2658.5kbits/s speed=0.0146x elapsed=0:02:42.60    \nframe=   74 fps=0.5 q=44.5 size=     768KiB time=00:00:02.36 bitrate=2658.5kbits/s speed=0.0145x elapsed=0:02:43.20    \nframe=   74 fps=0.5 q=44.5 size=     768KiB time=00:00:02.40 bitrate=2621.6kbits/s speed=0.0147x elapsed=0:02:43.77    \nframe=   74 fps=0.5 q=44.5 size=     768KiB time=00:00:02.40 bitrate=2621.6kbits/s speed=0.0146x elapsed=0:02:44.30    \nframe=   74 fps=0.4 q=44.5 size=     768KiB time=00:00:02.40 bitrate=2621.6kbits/s speed=0.0146x elapsed=0:02:44.87    \nframe=   74 fps=0.4 q=44.5 size=     768KiB time=00:00:02.40 bitrate=2621.6kbits/s speed=0.0145x elapsed=0:02:45.58    \nframe=   74 fps=0.4 q=44.5 size=     768KiB time=00:00:02.40 bitrate=2621.6kbits/s speed=0.0144x elapsed=0:02:46.11    \nframe=   74 fps=0.4 q=44.5 size=     768KiB time=00:00:02.40 bitrate=2621.6kbits/s speed=0.0144x elapsed=0:02:46.61    \nframe=   74 fps=0.4 q=44.5 size=     768KiB time=00:00:02.40 bitrate=2621.6kbits/s speed=0.0144x elapsed=0:02:47.15    \nframe=   75 fps=0.4 q=38.9 size=     768KiB time=00:00:02.43 bitrate=2585.7kbits/s speed=0.0145x elapsed=0:02:47.67    \nframe=   75 fps=0.4 q=38.9 size=     768KiB time=00:00:02.43 bitrate=2585.7kbits/s speed=0.0145x elapsed=0:02:48.20    \nframe=   75 fps=0.4 q=38.9 size=     768KiB time=00:00:02.43 bitrate=2585.7kbits/s speed=0.0144x elapsed=0:02:48.72    \nframe=   75 fps=0.4 q=38.9 size=     768KiB time=00:00:02.43 bitrate=2585.7kbits/s speed=0.0144x elapsed=0:02:49.27    \nframe=   75 fps=0.4 q=38.9 size=     768KiB time=00:00:02.43 bitrate=2585.7kbits/s speed=0.0143x elapsed=0:02:49.84    \nframe=   75 fps=0.4 q=38.9 size=     768KiB time=00:00:02.43 bitrate=2585.7kbits/s speed=0.0143x elapsed=0:02:50.36    \nframe=   75 fps=0.4 q=38.9 size=     768KiB time=00:00:02.43 bitrate=2585.7kbits/s speed=0.0142x elapsed=0:02:50.91    \nframe=   76 fps=0.4 q=42.0 size=     768KiB time=00:00:02.46 bitrate=2550.7kbits/s speed=0.0144x elapsed=0:02:51.44    \nframe=   77 fps=0.4 q=44.6 size=     768KiB time=00:00:02.50 bitrate=2516.7kbits/s speed=0.0145x elapsed=0:02:51.95    \nframe=   77 fps=0.4 q=44.6 size=     768KiB time=00:00:02.50 bitrate=2516.7kbits/s speed=0.0145x elapsed=0:02:52.46    \nframe=   77 fps=0.4 q=44.6 size=     768KiB time=00:00:02.50 bitrate=2516.7kbits/s speed=0.0145x elapsed=0:02:52.98    \nframe=   77 fps=0.4 q=44.6 size=     768KiB time=00:00:02.50 bitrate=2516.7kbits/s speed=0.0144x elapsed=0:02:53.50    \nframe=   77 fps=0.4 q=44.6 size=     768KiB time=00:00:02.50 bitrate=2516.7kbits/s speed=0.0144x elapsed=0:02:54.04    \nframe=   77 fps=0.4 q=44.6 size=     768KiB time=00:00:02.50 bitrate=2516.7kbits/s speed=0.0143x elapsed=0:02:54.56    \nframe=   77 fps=0.4 q=44.6 size=     768KiB time=00:00:02.50 bitrate=2516.7kbits/s speed=0.0143x elapsed=0:02:55.11    \nframe=   77 fps=0.4 q=44.6 size=     768KiB time=00:00:02.50 bitrate=2516.7kbits/s speed=0.0142x elapsed=0:02:55.61    \nframe=   77 fps=0.4 q=44.6 size=     768KiB time=00:00:02.50 bitrate=2516.7kbits/s speed=0.0142x elapsed=0:02:56.15    \nframe=   78 fps=0.4 q=44.4 size=     768KiB time=00:00:02.53 bitrate=2483.6kbits/s speed=0.0143x elapsed=0:02:56.70    \nframe=   78 fps=0.4 q=44.4 size=     768KiB time=00:00:02.53 bitrate=2483.6kbits/s speed=0.0143x elapsed=0:02:57.21    \nframe=   78 fps=0.4 q=44.4 size=     768KiB time=00:00:02.53 bitrate=2483.6kbits/s speed=0.0143x elapsed=0:02:57.76    \nframe=   78 fps=0.4 q=44.4 size=     768KiB time=00:00:02.53 bitrate=2483.6kbits/s speed=0.0142x elapsed=0:02:58.28    \nframe=   78 fps=0.4 q=44.4 size=     768KiB time=00:00:02.53 bitrate=2483.6kbits/s speed=0.0142x elapsed=0:02:58.82    \nframe=   78 fps=0.4 q=44.4 size=     768KiB time=00:00:02.53 bitrate=2483.6kbits/s speed=0.0141x elapsed=0:02:59.34    \nframe=   78 fps=0.4 q=44.4 size=     768KiB time=00:00:02.53 bitrate=2483.6kbits/s speed=0.0141x elapsed=0:02:59.89    \nframe=   78 fps=0.4 q=44.4 size=     768KiB time=00:00:02.53 bitrate=2483.6kbits/s speed=0.014x elapsed=0:03:00.40    \nframe=   79 fps=0.4 q=38.7 size=     768KiB time=00:00:02.56 bitrate=2451.4kbits/s speed=0.0142x elapsed=0:03:00.97    \nframe=   79 fps=0.4 q=38.7 size=     768KiB time=00:00:02.56 bitrate=2451.4kbits/s speed=0.0141x elapsed=0:03:01.49    \nframe=   79 fps=0.4 q=38.7 size=     768KiB time=00:00:02.56 bitrate=2451.4kbits/s speed=0.0141x elapsed=0:03:02.09    \nframe=   79 fps=0.4 q=38.7 size=     768KiB time=00:00:02.56 bitrate=2451.4kbits/s speed=0.0141x elapsed=0:03:02.64    \nframe=   79 fps=0.4 q=38.7 size=     768KiB time=00:00:02.56 bitrate=2451.4kbits/s speed=0.014x elapsed=0:03:03.16    \nframe=   79 fps=0.4 q=38.7 size=     768KiB time=00:00:02.56 bitrate=2451.4kbits/s speed=0.014x elapsed=0:03:03.69    \nframe=   79 fps=0.4 q=38.7 size=     768KiB time=00:00:02.56 bitrate=2451.4kbits/s speed=0.0139x elapsed=0:03:04.23    \nframe=   79 fps=0.4 q=38.7 size=     768KiB time=00:00:02.56 bitrate=2451.4kbits/s speed=0.0139x elapsed=0:03:04.76    \nframe=   79 fps=0.4 q=38.7 size=     768KiB time=00:00:02.56 bitrate=2451.4kbits/s speed=0.0139x elapsed=0:03:05.30    \nframe=   79 fps=0.4 q=38.7 size=     768KiB time=00:00:02.56 bitrate=2451.4kbits/s speed=0.0138x elapsed=0:03:05.84    \nframe=   79 fps=0.4 q=38.7 size=     768KiB time=00:00:02.56 bitrate=2451.4kbits/s speed=0.0138x elapsed=0:03:06.43    \nframe=   79 fps=0.4 q=38.7 size=     768KiB time=00:00:02.56 bitrate=2451.4kbits/s speed=0.0137x elapsed=0:03:06.95    \nframe=   79 fps=0.4 q=38.7 size=     768KiB time=00:00:02.56 bitrate=2451.4kbits/s speed=0.0137x elapsed=0:03:07.48    \nframe=   79 fps=0.4 q=38.7 size=     768KiB time=00:00:02.56 bitrate=2451.4kbits/s speed=0.0137x elapsed=0:03:08.02    \nframe=   80 fps=0.4 q=41.8 size=     768KiB time=00:00:02.60 bitrate=2419.9kbits/s speed=0.0138x elapsed=0:03:08.57    \nframe=   80 fps=0.4 q=41.8 size=     768KiB time=00:00:02.60 bitrate=2419.9kbits/s speed=0.0137x elapsed=0:03:09.09    \nframe=   80 fps=0.4 q=41.8 size=     768KiB time=00:00:02.60 bitrate=2419.9kbits/s speed=0.0137x elapsed=0:03:09.61    \nframe=   80 fps=0.4 q=41.8 size=     768KiB time=00:00:02.60 bitrate=2419.9kbits/s speed=0.0137x elapsed=0:03:10.13    \nframe=   81 fps=0.4 q=44.4 size=     768KiB time=00:00:02.63 bitrate=2389.3kbits/s speed=0.0138x elapsed=0:03:10.65    \nframe=   81 fps=0.4 q=44.4 size=     768KiB time=00:00:02.63 bitrate=2389.3kbits/s speed=0.0138x elapsed=0:03:11.17    \nframe=   82 fps=0.4 q=44.5 size=     768KiB time=00:00:02.66 bitrate=2359.4kbits/s speed=0.0139x elapsed=0:03:11.71    \nframe=   82 fps=0.4 q=44.5 size=     768KiB time=00:00:02.66 bitrate=2359.4kbits/s speed=0.0139x elapsed=0:03:12.36    \nframe=   82 fps=0.4 q=44.5 size=     768KiB time=00:00:02.66 bitrate=2359.4kbits/s speed=0.0138x elapsed=0:03:12.88    \nframe=   83 fps=0.4 q=38.7 size=     768KiB time=00:00:02.70 bitrate=2330.3kbits/s speed=0.014x elapsed=0:03:13.46    \nframe=   83 fps=0.4 q=38.7 size=     768KiB time=00:00:02.70 bitrate=2330.3kbits/s speed=0.0139x elapsed=0:03:13.98    \nframe=   83 fps=0.4 q=38.7 size=     768KiB time=00:00:02.70 bitrate=2330.3kbits/s speed=0.0139x elapsed=0:03:14.50    \nframe=   83 fps=0.4 q=38.7 size=     768KiB time=00:00:02.70 bitrate=2330.3kbits/s speed=0.0138x elapsed=0:03:15.06    \nframe=   83 fps=0.4 q=38.7 size=     768KiB time=00:00:02.70 bitrate=2330.3kbits/s speed=0.0138x elapsed=0:03:15.58    \nframe=   83 fps=0.4 q=38.7 size=     768KiB time=00:00:02.70 bitrate=2330.3kbits/s speed=0.0138x elapsed=0:03:16.08    \nframe=   83 fps=0.4 q=38.7 size=     768KiB time=00:00:02.70 bitrate=2330.3kbits/s speed=0.0137x elapsed=0:03:16.64    \nframe=   83 fps=0.4 q=38.7 size=     768KiB time=00:00:02.70 bitrate=2330.3kbits/s speed=0.0137x elapsed=0:03:17.18    \nframe=   83 fps=0.4 q=38.7 size=     768KiB time=00:00:02.70 bitrate=2330.3kbits/s speed=0.0137x elapsed=0:03:17.70    \nframe=   83 fps=0.4 q=38.7 size=     768KiB time=00:00:02.70 bitrate=2330.3kbits/s speed=0.0136x elapsed=0:03:18.23    \nframe=   84 fps=0.4 q=42.1 size=     768KiB time=00:00:02.73 bitrate=2301.9kbits/s speed=0.0138x elapsed=0:03:18.77    \nframe=   84 fps=0.4 q=42.1 size=     768KiB time=00:00:02.73 bitrate=2301.9kbits/s speed=0.0137x elapsed=0:03:19.29    \nframe=   84 fps=0.4 q=42.1 size=     768KiB time=00:00:02.73 bitrate=2301.9kbits/s speed=0.0137x elapsed=0:03:19.83    \nframe=   85 fps=0.4 q=44.3 size=    1024KiB time=00:00:02.76 bitrate=3032.2kbits/s speed=0.0138x elapsed=0:03:20.36    \nframe=   86 fps=0.4 q=44.5 size=    1024KiB time=00:00:02.80 bitrate=2996.1kbits/s speed=0.0139x elapsed=0:03:20.88    \nframe=   86 fps=0.4 q=44.5 size=    1024KiB time=00:00:02.80 bitrate=2996.1kbits/s speed=0.0139x elapsed=0:03:21.43    \nframe=   86 fps=0.4 q=44.5 size=    1024KiB time=00:00:02.80 bitrate=2996.1kbits/s speed=0.0139x elapsed=0:03:21.95    \nframe=   87 fps=0.4 q=38.7 size=    1024KiB time=00:00:02.83 bitrate=2960.8kbits/s speed=0.014x elapsed=0:03:22.46    \nframe=   87 fps=0.4 q=38.7 size=    1024KiB time=00:00:02.83 bitrate=2960.8kbits/s speed=0.014x elapsed=0:03:22.98    \nframe=   87 fps=0.4 q=38.7 size=    1024KiB time=00:00:02.83 bitrate=2960.8kbits/s speed=0.0139x elapsed=0:03:23.51    \nframe=   88 fps=0.4 q=42.0 size=    1024KiB time=00:00:02.86 bitrate=2926.4kbits/s speed=0.014x elapsed=0:03:24.06    \nframe=   88 fps=0.4 q=42.0 size=    1024KiB time=00:00:02.86 bitrate=2926.4kbits/s speed=0.014x elapsed=0:03:24.58    \nframe=   88 fps=0.4 q=42.0 size=    1024KiB time=00:00:02.86 bitrate=2926.4kbits/s speed=0.014x elapsed=0:03:25.08    \nframe=   89 fps=0.4 q=44.6 size=    1024KiB time=00:00:02.90 bitrate=2892.7kbits/s speed=0.0141x elapsed=0:03:25.61    \nframe=   89 fps=0.4 q=44.6 size=    1024KiB time=00:00:02.90 bitrate=2892.7kbits/s speed=0.0141x elapsed=0:03:26.13    \nframe=   90 fps=0.4 q=44.5 size=    1024KiB time=00:00:02.93 bitrate=2859.9kbits/s speed=0.0142x elapsed=0:03:26.63    \nframe=   90 fps=0.4 q=44.5 size=    1024KiB time=00:00:02.93 bitrate=2859.9kbits/s speed=0.0142x elapsed=0:03:27.16    \nframe=   90 fps=0.4 q=44.5 size=    1024KiB time=00:00:02.93 bitrate=2859.9kbits/s speed=0.0141x elapsed=0:03:27.70    \nframe=   91 fps=0.4 q=38.8 size=    1024KiB time=00:00:02.96 bitrate=2827.7kbits/s speed=0.0142x elapsed=0:03:28.22    \nframe=   91 fps=0.4 q=38.8 size=    1024KiB time=00:00:02.96 bitrate=2827.7kbits/s speed=0.0142x elapsed=0:03:28.75    \nframe=   91 fps=0.4 q=38.8 size=    1024KiB time=00:00:02.96 bitrate=2827.7kbits/s speed=0.0142x elapsed=0:03:29.30    \nframe=   91 fps=0.4 q=38.8 size=    1024KiB time=00:00:02.96 bitrate=2827.7kbits/s speed=0.0141x elapsed=0:03:29.89    \nframe=   91 fps=0.4 q=38.8 size=    1024KiB time=00:00:02.96 bitrate=2827.7kbits/s speed=0.0141x elapsed=0:03:30.45    \nframe=   91 fps=0.4 q=38.8 size=    1024KiB time=00:00:02.96 bitrate=2827.7kbits/s speed=0.0141x elapsed=0:03:30.99    \nframe=   91 fps=0.4 q=38.8 size=    1024KiB time=00:00:02.96 bitrate=2827.7kbits/s speed=0.014x elapsed=0:03:31.54    \nframe=   91 fps=0.4 q=38.8 size=    1024KiB time=00:00:02.96 bitrate=2827.7kbits/s speed=0.014x elapsed=0:03:32.10    \nframe=   92 fps=0.4 q=41.8 size=    1024KiB time=00:00:03.00 bitrate=2796.3kbits/s speed=0.0141x elapsed=0:03:32.68    \nframe=   92 fps=0.4 q=41.8 size=    1024KiB time=00:00:03.00 bitrate=2796.3kbits/s speed=0.0141x elapsed=0:03:33.25    \nframe=   92 fps=0.4 q=41.8 size=    1024KiB time=00:00:03.00 bitrate=2796.3kbits/s speed=0.014x elapsed=0:03:33.76    \nframe=   92 fps=0.4 q=41.8 size=    1024KiB time=00:00:03.00 bitrate=2796.3kbits/s speed=0.014x elapsed=0:03:34.28    \nframe=   93 fps=0.4 q=44.0 size=    1024KiB time=00:00:03.03 bitrate=2765.6kbits/s speed=0.0141x elapsed=0:03:34.82    \nframe=   94 fps=0.4 q=44.2 size=    1024KiB time=00:00:03.06 bitrate=2735.5kbits/s speed=0.0142x elapsed=0:03:35.32    \nframe=   94 fps=0.4 q=44.2 size=    1024KiB time=00:00:03.06 bitrate=2735.5kbits/s speed=0.0142x elapsed=0:03:35.88    \nframe=   94 fps=0.4 q=44.2 size=    1024KiB time=00:00:03.06 bitrate=2735.5kbits/s speed=0.0142x elapsed=0:03:36.40    \nframe=   94 fps=0.4 q=44.2 size=    1024KiB time=00:00:03.06 bitrate=2735.5kbits/s speed=0.0141x elapsed=0:03:36.92    \nframe=   94 fps=0.4 q=44.2 size=    1024KiB time=00:00:03.06 bitrate=2735.5kbits/s speed=0.0141x elapsed=0:03:37.44    \nframe=   94 fps=0.4 q=44.2 size=    1024KiB time=00:00:03.06 bitrate=2735.5kbits/s speed=0.0141x elapsed=0:03:37.97    \nframe=   94 fps=0.4 q=44.2 size=    1024KiB time=00:00:03.06 bitrate=2735.5kbits/s speed=0.014x elapsed=0:03:38.51    \nframe=   94 fps=0.4 q=44.2 size=    1024KiB time=00:00:03.06 bitrate=2735.5kbits/s speed=0.014x elapsed=0:03:39.03    \nframe=   94 fps=0.4 q=44.2 size=    1024KiB time=00:00:03.06 bitrate=2735.5kbits/s speed=0.014x elapsed=0:03:39.55    \nframe=   94 fps=0.4 q=44.2 size=    1024KiB time=00:00:03.06 bitrate=2735.5kbits/s speed=0.0139x elapsed=0:03:40.07    \nframe=   94 fps=0.4 q=44.2 size=    1024KiB time=00:00:03.06 bitrate=2735.5kbits/s speed=0.0139x elapsed=0:03:40.61    \nframe=   95 fps=0.4 q=38.8 size=    1024KiB time=00:00:03.10 bitrate=2706.1kbits/s speed=0.014x elapsed=0:03:41.20    \nframe=   95 fps=0.4 q=38.8 size=    1024KiB time=00:00:03.10 bitrate=2706.1kbits/s speed=0.014x elapsed=0:03:41.74    \nframe=   95 fps=0.4 q=38.8 size=    1024KiB time=00:00:03.10 bitrate=2706.1kbits/s speed=0.0139x elapsed=0:03:42.27    \nframe=   95 fps=0.4 q=38.8 size=    1024KiB time=00:00:03.10 bitrate=2706.1kbits/s speed=0.0139x elapsed=0:03:42.81    \nframe=   95 fps=0.4 q=38.8 size=    1024KiB time=00:00:03.10 bitrate=2706.1kbits/s speed=0.0139x elapsed=0:03:43.38    \nframe=   95 fps=0.4 q=38.8 size=    1024KiB time=00:00:03.10 bitrate=2706.1kbits/s speed=0.0138x elapsed=0:03:43.90    \nframe=   96 fps=0.4 q=41.7 size=    1024KiB time=00:00:03.13 bitrate=2677.3kbits/s speed=0.014x elapsed=0:03:44.42    \nframe=   96 fps=0.4 q=41.7 size=    1024KiB time=00:00:03.13 bitrate=2677.3kbits/s speed=0.0139x elapsed=0:03:44.93    \nframe=   96 fps=0.4 q=41.7 size=    1024KiB time=00:00:03.13 bitrate=2677.3kbits/s speed=0.0139x elapsed=0:03:45.47    \nframe=   96 fps=0.4 q=41.7 size=    1024KiB time=00:00:03.13 bitrate=2677.3kbits/s speed=0.0139x elapsed=0:03:45.99    \nframe=   96 fps=0.4 q=41.7 size=    1024KiB time=00:00:03.13 bitrate=2677.3kbits/s speed=0.0138x elapsed=0:03:46.53    \nframe=   96 fps=0.4 q=41.7 size=    1024KiB time=00:00:03.13 bitrate=2677.3kbits/s speed=0.0138x elapsed=0:03:47.05    \nframe=   96 fps=0.4 q=41.7 size=    1024KiB time=00:00:03.13 bitrate=2677.3kbits/s speed=0.0138x elapsed=0:03:47.65    \nframe=   96 fps=0.4 q=41.7 size=    1024KiB time=00:00:03.13 bitrate=2677.3kbits/s speed=0.0137x elapsed=0:03:48.17    \nframe=   96 fps=0.4 q=41.7 size=    1024KiB time=00:00:03.13 bitrate=2677.3kbits/s speed=0.0137x elapsed=0:03:48.68    \nframe=   97 fps=0.4 q=44.2 size=    1024KiB time=00:00:03.16 bitrate=2649.1kbits/s speed=0.0138x elapsed=0:03:49.20    \nframe=   97 fps=0.4 q=44.2 size=    1024KiB time=00:00:03.16 bitrate=2649.1kbits/s speed=0.0138x elapsed=0:03:49.72    \nframe=   97 fps=0.4 q=44.2 size=    1024KiB time=00:00:03.16 bitrate=2649.1kbits/s speed=0.0137x elapsed=0:03:50.31    \nframe=   97 fps=0.4 q=44.2 size=    1024KiB time=00:00:03.16 bitrate=2649.1kbits/s speed=0.0137x elapsed=0:03:50.83    \nframe=   97 fps=0.4 q=44.2 size=    1024KiB time=00:00:03.16 bitrate=2649.1kbits/s speed=0.0137x elapsed=0:03:51.34    \nframe=   97 fps=0.4 q=44.2 size=    1024KiB time=00:00:03.16 bitrate=2649.1kbits/s speed=0.0137x elapsed=0:03:51.87    \nframe=   97 fps=0.4 q=44.2 size=    1024KiB time=00:00:03.16 bitrate=2649.1kbits/s speed=0.0136x elapsed=0:03:52.44    \nframe=   97 fps=0.4 q=44.2 size=    1024KiB time=00:00:03.16 bitrate=2649.1kbits/s speed=0.0136x elapsed=0:03:52.97    \nframe=   98 fps=0.4 q=44.2 size=    1024KiB time=00:00:03.20 bitrate=2621.6kbits/s speed=0.0137x elapsed=0:03:53.49    \nframe=   98 fps=0.4 q=44.2 size=    1024KiB time=00:00:03.20 bitrate=2621.6kbits/s speed=0.0137x elapsed=0:03:53.99    \nframe=   98 fps=0.4 q=44.2 size=    1024KiB time=00:00:03.20 bitrate=2621.6kbits/s speed=0.0136x elapsed=0:03:54.55    \nframe=   99 fps=0.4 q=38.8 size=    1024KiB time=00:00:03.23 bitrate=2594.5kbits/s speed=0.0138x elapsed=0:03:55.07    \nframe=   99 fps=0.4 q=38.8 size=    1024KiB time=00:00:03.23 bitrate=2594.5kbits/s speed=0.0137x elapsed=0:03:55.59    \nframe=   99 fps=0.4 q=38.8 size=    1024KiB time=00:00:03.23 bitrate=2594.5kbits/s speed=0.0137x elapsed=0:03:56.11    \nframe=   99 fps=0.4 q=38.8 size=    1024KiB time=00:00:03.23 bitrate=2594.5kbits/s speed=0.0137x elapsed=0:03:56.66    \nframe=  100 fps=0.4 q=42.1 size=    1024KiB time=00:00:03.26 bitrate=2568.0kbits/s speed=0.0138x elapsed=0:03:57.20    \nframe=  100 fps=0.4 q=42.1 size=    1024KiB time=00:00:03.26 bitrate=2568.0kbits/s speed=0.0137x elapsed=0:03:57.74    \nframe=  100 fps=0.4 q=42.1 size=    1024KiB time=00:00:03.26 bitrate=2568.0kbits/s speed=0.0137x elapsed=0:03:58.24    \nframe=  100 fps=0.4 q=42.1 size=    1024KiB time=00:00:03.26 bitrate=2568.0kbits/s speed=0.0137x elapsed=0:03:58.77    \nframe=  100 fps=0.4 q=42.1 size=    1024KiB time=00:00:03.26 bitrate=2568.0kbits/s speed=0.0137x elapsed=0:03:59.29    \nframe=  101 fps=0.4 q=44.2 size=    1024KiB time=00:00:03.30 bitrate=2542.1kbits/s speed=0.0138x elapsed=0:03:59.84    \nframe=  101 fps=0.4 q=44.2 size=    1024KiB time=00:00:03.30 bitrate=2542.1kbits/s speed=0.0137x elapsed=0:04:00.36    \nframe=  102 fps=0.4 q=44.5 size=    1024KiB time=00:00:03.33 bitrate=2516.7kbits/s speed=0.0138x elapsed=0:04:00.89    \nframe=  102 fps=0.4 q=44.5 size=    1024KiB time=00:00:03.33 bitrate=2516.7kbits/s speed=0.0138x elapsed=0:04:01.41    \nframe=  102 fps=0.4 q=44.5 size=    1024KiB time=00:00:03.33 bitrate=2516.7kbits/s speed=0.0138x elapsed=0:04:01.93    \nframe=  102 fps=0.4 q=44.5 size=    1024KiB time=00:00:03.33 bitrate=2516.7kbits/s speed=0.0137x elapsed=0:04:02.45    \nframe=  103 fps=0.4 q=38.9 size=    1024KiB time=00:00:03.36 bitrate=2491.8kbits/s speed=0.0139x elapsed=0:04:02.96    \nframe=  103 fps=0.4 q=38.9 size=    1024KiB time=00:00:03.36 bitrate=2491.8kbits/s speed=0.0138x elapsed=0:04:03.50    \nframe=  103 fps=0.4 q=38.9 size=    1024KiB time=00:00:03.36 bitrate=2491.8kbits/s speed=0.0138x elapsed=0:04:04.02    \nframe=  103 fps=0.4 q=38.9 size=    1024KiB time=00:00:03.36 bitrate=2491.8kbits/s speed=0.0138x elapsed=0:04:04.54    \nframe=  103 fps=0.4 q=38.9 size=    1024KiB time=00:00:03.36 bitrate=2491.8kbits/s speed=0.0137x elapsed=0:04:05.08    \nframe=  103 fps=0.4 q=38.9 size=    1024KiB time=00:00:03.36 bitrate=2491.8kbits/s speed=0.0137x elapsed=0:04:05.59    \nframe=  103 fps=0.4 q=38.9 size=    1024KiB time=00:00:03.36 bitrate=2491.8kbits/s speed=0.0137x elapsed=0:04:06.11    \nframe=  103 fps=0.4 q=38.9 size=    1024KiB time=00:00:03.36 bitrate=2491.8kbits/s speed=0.0136x elapsed=0:04:06.64    \nframe=  103 fps=0.4 q=38.9 size=    1024KiB time=00:00:03.36 bitrate=2491.8kbits/s speed=0.0136x elapsed=0:04:07.17    \nframe=  103 fps=0.4 q=38.9 size=    1024KiB time=00:00:03.36 bitrate=2491.8kbits/s speed=0.0136x elapsed=0:04:07.71    \nframe=  103 fps=0.4 q=38.9 size=    1024KiB time=00:00:03.36 bitrate=2491.8kbits/s speed=0.0136x elapsed=0:04:08.25    \nframe=  103 fps=0.4 q=38.9 size=    1024KiB time=00:00:03.36 bitrate=2491.8kbits/s speed=0.0135x elapsed=0:04:08.76    \nframe=  103 fps=0.4 q=38.9 size=    1024KiB time=00:00:03.36 bitrate=2491.8kbits/s speed=0.0135x elapsed=0:04:09.31    \nframe=  103 fps=0.4 q=38.9 size=    1024KiB time=00:00:03.36 bitrate=2491.8kbits/s speed=0.0135x elapsed=0:04:09.90    \nframe=  103 fps=0.4 q=38.9 size=    1024KiB time=00:00:03.36 bitrate=2491.8kbits/s speed=0.0134x elapsed=0:04:10.47    \nframe=  103 fps=0.4 q=38.9 size=    1024KiB time=00:00:03.36 bitrate=2491.8kbits/s speed=0.0134x elapsed=0:04:11.07    \nframe=  103 fps=0.4 q=38.9 size=    1024KiB time=00:00:03.36 bitrate=2491.8kbits/s speed=0.0134x elapsed=0:04:11.64    \nframe=  103 fps=0.4 q=38.9 size=    1024KiB time=00:00:03.36 bitrate=2491.8kbits/s speed=0.0134x elapsed=0:04:12.16    \nframe=  103 fps=0.4 q=38.9 size=    1024KiB time=00:00:03.36 bitrate=2491.8kbits/s speed=0.0133x elapsed=0:04:12.73    \nframe=  103 fps=0.4 q=38.9 size=    1024KiB time=00:00:03.36 bitrate=2491.8kbits/s speed=0.0133x elapsed=0:04:13.26    \nframe=  104 fps=0.4 q=42.0 size=    1024KiB time=00:00:03.40 bitrate=2467.3kbits/s speed=0.0134x elapsed=0:04:13.77    \nframe=  104 fps=0.4 q=42.0 size=    1024KiB time=00:00:03.40 bitrate=2467.3kbits/s speed=0.0134x elapsed=0:04:14.31    \nframe=  104 fps=0.4 q=42.0 size=    1024KiB time=00:00:03.40 bitrate=2467.3kbits/s speed=0.0133x elapsed=0:04:14.83    \nframe=  104 fps=0.4 q=42.0 size=    1024KiB time=00:00:03.40 bitrate=2467.3kbits/s speed=0.0133x elapsed=0:04:15.35    \nframe=  105 fps=0.4 q=44.2 size=    1280KiB time=00:00:03.43 bitrate=3054.2kbits/s speed=0.0134x elapsed=0:04:15.87    \nframe=  106 fps=0.4 q=44.5 size=    1280KiB time=00:00:03.46 bitrate=3024.8kbits/s speed=0.0135x elapsed=0:04:16.39    \nframe=  106 fps=0.4 q=44.5 size=    1280KiB time=00:00:03.46 bitrate=3024.8kbits/s speed=0.0135x elapsed=0:04:16.90    \nframe=  107 fps=0.4 q=38.9 size=    1280KiB time=00:00:03.50 bitrate=2996.0kbits/s speed=0.0136x elapsed=0:04:17.42    \nframe=  107 fps=0.4 q=38.9 size=    1280KiB time=00:00:03.50 bitrate=2996.0kbits/s speed=0.0136x elapsed=0:04:17.94    \nframe=  107 fps=0.4 q=38.9 size=    1280KiB time=00:00:03.50 bitrate=2996.0kbits/s speed=0.0135x elapsed=0:04:18.46    \nframe=  107 fps=0.4 q=38.9 size=    1280KiB time=00:00:03.50 bitrate=2996.0kbits/s speed=0.0135x elapsed=0:04:18.98    \nframe=  107 fps=0.4 q=38.9 size=    1280KiB time=00:00:03.50 bitrate=2996.0kbits/s speed=0.0135x elapsed=0:04:19.50    \nframe=  108 fps=0.4 q=42.0 size=    1280KiB time=00:00:03.53 bitrate=2967.8kbits/s speed=0.0136x elapsed=0:04:20.01    \nframe=  108 fps=0.4 q=42.0 size=    1280KiB time=00:00:03.53 bitrate=2967.8kbits/s speed=0.0136x elapsed=0:04:20.53    \nframe=  108 fps=0.4 q=42.0 size=    1280KiB time=00:00:03.53 bitrate=2967.8kbits/s speed=0.0135x elapsed=0:04:21.05    \nframe=  108 fps=0.4 q=42.0 size=    1280KiB time=00:00:03.53 bitrate=2967.8kbits/s speed=0.0135x elapsed=0:04:21.59    \nframe=  109 fps=0.4 q=44.6 size=    1280KiB time=00:00:03.56 bitrate=2940.0kbits/s speed=0.0136x elapsed=0:04:22.12    \nframe=  110 fps=0.4 q=44.6 size=    1280KiB time=00:00:03.60 bitrate=2912.8kbits/s speed=0.0137x elapsed=0:04:22.64    \nframe=  110 fps=0.4 q=44.6 size=    1280KiB time=00:00:03.60 bitrate=2912.8kbits/s speed=0.0137x elapsed=0:04:23.17    \nframe=  111 fps=0.4 q=38.9 size=    1280KiB time=00:00:03.63 bitrate=2886.1kbits/s speed=0.0138x elapsed=0:04:23.69    \nframe=  111 fps=0.4 q=38.9 size=    1280KiB time=00:00:03.63 bitrate=2886.1kbits/s speed=0.0138x elapsed=0:04:24.21    \nframe=  112 fps=0.4 q=43.2 size=    1280KiB time=00:00:03.66 bitrate=2859.8kbits/s speed=0.0139x elapsed=0:04:24.73    \nframe=  112 fps=0.4 q=43.2 size=    1280KiB time=00:00:03.66 bitrate=2859.8kbits/s speed=0.0138x elapsed=0:04:25.27    \nframe=  112 fps=0.4 q=43.2 size=    1280KiB time=00:00:03.66 bitrate=2859.8kbits/s speed=0.0138x elapsed=0:04:25.77    \nframe=  112 fps=0.4 q=43.2 size=    1280KiB time=00:00:03.66 bitrate=2859.8kbits/s speed=0.0138x elapsed=0:04:26.29    \nframe=  112 fps=0.4 q=43.2 size=    1280KiB time=00:00:03.66 bitrate=2859.8kbits/s speed=0.0137x elapsed=0:04:26.83    \nframe=  113 fps=0.4 q=44.2 size=    1280KiB time=00:00:03.70 bitrate=2834.1kbits/s speed=0.0138x elapsed=0:04:27.35    \nframe=  113 fps=0.4 q=44.2 size=    1280KiB time=00:00:03.70 bitrate=2834.1kbits/s speed=0.0138x elapsed=0:04:27.90    \nframe=  113 fps=0.4 q=44.2 size=    1280KiB time=00:00:03.70 bitrate=2834.1kbits/s speed=0.0138x elapsed=0:04:28.42    \nframe=  113 fps=0.4 q=44.2 size=    1280KiB time=00:00:03.70 bitrate=2834.1kbits/s speed=0.0138x elapsed=0:04:28.93    \nframe=  115 fps=0.4 q=44.6 size=    1280KiB time=00:00:03.76 bitrate=2783.9kbits/s speed=0.014x elapsed=0:04:29.50    \nframe=  115 fps=0.4 q=44.6 size=    1280KiB time=00:00:03.76 bitrate=2783.9kbits/s speed=0.0139x elapsed=0:04:30.02    \nframe=  116 fps=0.4 q=38.9 size=    1280KiB time=00:00:03.80 bitrate=2759.5kbits/s speed=0.014x elapsed=0:04:30.52    \nframe=  116 fps=0.4 q=38.9 size=    1280KiB time=00:00:03.80 bitrate=2759.5kbits/s speed=0.014x elapsed=0:04:31.04    \nframe=  116 fps=0.4 q=38.9 size=    1280KiB time=00:00:03.80 bitrate=2759.5kbits/s speed=0.014x elapsed=0:04:31.56    \nframe=  116 fps=0.4 q=38.9 size=    1280KiB time=00:00:03.80 bitrate=2759.5kbits/s speed=0.014x elapsed=0:04:32.07    \nframe=  116 fps=0.4 q=38.9 size=    1280KiB time=00:00:03.80 bitrate=2759.5kbits/s speed=0.0139x elapsed=0:04:32.61    \nframe=  117 fps=0.4 q=41.8 size=    1280KiB time=00:00:03.83 bitrate=2735.5kbits/s speed=0.014x elapsed=0:04:33.13    \nframe=  117 fps=0.4 q=41.8 size=    1280KiB time=00:00:03.83 bitrate=2735.5kbits/s speed=0.014x elapsed=0:04:33.65    \nframe=  117 fps=0.4 q=41.8 size=    1280KiB time=00:00:03.83 bitrate=2735.5kbits/s speed=0.014x elapsed=0:04:34.17    \nframe=  118 fps=0.4 q=44.2 size=    1280KiB time=00:00:03.86 bitrate=2711.9kbits/s speed=0.0141x elapsed=0:04:34.68    \nframe=  119 fps=0.4 q=44.3 size=    1280KiB time=00:00:03.90 bitrate=2688.7kbits/s speed=0.0142x elapsed=0:04:35.20    \nframe=  119 fps=0.4 q=44.3 size=    1280KiB time=00:00:03.90 bitrate=2688.7kbits/s speed=0.0141x elapsed=0:04:35.72    \nframe=  119 fps=0.4 q=44.3 size=    1280KiB time=00:00:03.90 bitrate=2688.7kbits/s speed=0.0141x elapsed=0:04:36.24    \nframe=  119 fps=0.4 q=44.3 size=    1280KiB time=00:00:03.90 bitrate=2688.7kbits/s speed=0.0141x elapsed=0:04:36.74    \nframe=  120 fps=0.4 q=38.9 size=    1280KiB time=00:00:03.93 bitrate=2666.0kbits/s speed=0.0142x elapsed=0:04:37.26    \nframe=  121 fps=0.4 q=41.8 size=    1280KiB time=00:00:03.96 bitrate=2643.6kbits/s speed=0.0143x elapsed=0:04:37.77    \nframe=  121 fps=0.4 q=41.8 size=    1280KiB time=00:00:03.96 bitrate=2643.6kbits/s speed=0.0143x elapsed=0:04:38.29    \nframe=  122 fps=0.4 q=44.2 size=    1280KiB time=00:00:04.00 bitrate=2621.5kbits/s speed=0.0143x elapsed=0:04:38.83    \nframe=  122 fps=0.4 q=44.2 size=    1280KiB time=00:00:04.00 bitrate=2621.5kbits/s speed=0.0143x elapsed=0:04:39.37    \nframe=  123 fps=0.4 q=44.5 size=    1280KiB time=00:00:04.03 bitrate=2599.9kbits/s speed=0.0144x elapsed=0:04:39.90    \nframe=  123 fps=0.4 q=44.5 size=    1280KiB time=00:00:04.03 bitrate=2599.9kbits/s speed=0.0144x elapsed=0:04:40.42    \nframe=  123 fps=0.4 q=44.5 size=    1280KiB time=00:00:04.03 bitrate=2599.9kbits/s speed=0.0144x elapsed=0:04:40.94    \nframe=  123 fps=0.4 q=44.5 size=    1280KiB time=00:00:04.03 bitrate=2599.9kbits/s speed=0.0143x elapsed=0:04:41.46    \nframe=  124 fps=0.4 q=38.9 size=    1280KiB time=00:00:04.06 bitrate=2578.6kbits/s speed=0.0144x elapsed=0:04:41.99    \nframe=  124 fps=0.4 q=38.9 size=    1280KiB time=00:00:04.06 bitrate=2578.6kbits/s speed=0.0144x elapsed=0:04:42.49    \nframe=  124 fps=0.4 q=38.9 size=    1280KiB time=00:00:04.06 bitrate=2578.6kbits/s speed=0.0144x elapsed=0:04:43.01    \nframe=  124 fps=0.4 q=38.9 size=    1280KiB time=00:00:04.06 bitrate=2578.6kbits/s speed=0.0143x elapsed=0:04:43.55    \nframe=  124 fps=0.4 q=38.9 size=    1280KiB time=00:00:04.06 bitrate=2578.6kbits/s speed=0.0143x elapsed=0:04:44.05    \nframe=  126 fps=0.4 q=44.4 size=    1536KiB time=00:00:04.13 bitrate=3044.3kbits/s speed=0.0145x elapsed=0:04:44.58    \nframe=  126 fps=0.4 q=44.4 size=    1536KiB time=00:00:04.13 bitrate=3044.3kbits/s speed=0.0145x elapsed=0:04:45.13    \nframe=  126 fps=0.4 q=44.4 size=    1536KiB time=00:00:04.13 bitrate=3044.3kbits/s speed=0.0145x elapsed=0:04:45.65    \nframe=  126 fps=0.4 q=44.4 size=    1536KiB time=00:00:04.13 bitrate=3044.3kbits/s speed=0.0144x elapsed=0:04:46.17    \nframe=  127 fps=0.4 q=44.3 size=    1536KiB time=00:00:04.16 bitrate=3020.0kbits/s speed=0.0145x elapsed=0:04:46.71    \nframe=  128 fps=0.4 q=39.0 size=    1536KiB time=00:00:04.20 bitrate=2996.0kbits/s speed=0.0146x elapsed=0:04:47.23    \nframe=  128 fps=0.4 q=39.0 size=    1536KiB time=00:00:04.20 bitrate=2996.0kbits/s speed=0.0146x elapsed=0:04:47.75    \nframe=  128 fps=0.4 q=39.0 size=    1536KiB time=00:00:04.20 bitrate=2996.0kbits/s speed=0.0146x elapsed=0:04:48.27    \nframe=  128 fps=0.4 q=39.0 size=    1536KiB time=00:00:04.20 bitrate=2996.0kbits/s speed=0.0145x elapsed=0:04:48.80    \nframe=  128 fps=0.4 q=39.0 size=    1536KiB time=00:00:04.20 bitrate=2996.0kbits/s speed=0.0145x elapsed=0:04:49.30    \nframe=  128 fps=0.4 q=39.0 size=    1536KiB time=00:00:04.20 bitrate=2996.0kbits/s speed=0.0145x elapsed=0:04:49.82    \nframe=  128 fps=0.4 q=39.0 size=    1536KiB time=00:00:04.20 bitrate=2996.0kbits/s speed=0.0145x elapsed=0:04:50.35    \nframe=  128 fps=0.4 q=39.0 size=    1536KiB time=00:00:04.20 bitrate=2996.0kbits/s speed=0.0144x elapsed=0:04:50.88    \nframe=  128 fps=0.4 q=39.0 size=    1536KiB time=00:00:04.20 bitrate=2996.0kbits/s speed=0.0144x elapsed=0:04:51.42    \nframe=  128 fps=0.4 q=39.0 size=    1536KiB time=00:00:04.20 bitrate=2996.0kbits/s speed=0.0144x elapsed=0:04:51.93    \nframe=  128 fps=0.4 q=39.0 size=    1536KiB time=00:00:04.20 bitrate=2996.0kbits/s speed=0.0144x elapsed=0:04:52.45    \nframe=  129 fps=0.4 q=41.9 size=    1536KiB time=00:00:04.23 bitrate=2972.4kbits/s speed=0.0144x elapsed=0:04:52.97    \nframe=  130 fps=0.4 q=44.4 size=    1536KiB time=00:00:04.26 bitrate=2949.2kbits/s speed=0.0145x elapsed=0:04:53.48    \nframe=  130 fps=0.4 q=44.4 size=    1536KiB time=00:00:04.26 bitrate=2949.2kbits/s speed=0.0145x elapsed=0:04:54.02    \nframe=  130 fps=0.4 q=44.4 size=    1536KiB time=00:00:04.26 bitrate=2949.2kbits/s speed=0.0145x elapsed=0:04:54.54    \nframe=  130 fps=0.4 q=44.4 size=    1536KiB time=00:00:04.26 bitrate=2949.2kbits/s speed=0.0145x elapsed=0:04:55.06    \nframe=  130 fps=0.4 q=44.4 size=    1536KiB time=00:00:04.26 bitrate=2949.2kbits/s speed=0.0144x elapsed=0:04:55.66    \nframe=  130 fps=0.4 q=44.4 size=    1536KiB time=00:00:04.26 bitrate=2949.2kbits/s speed=0.0144x elapsed=0:04:56.16    \nframe=  131 fps=0.4 q=44.1 size=    1536KiB time=00:00:04.30 bitrate=2926.3kbits/s speed=0.0145x elapsed=0:04:56.70    \nframe=  131 fps=0.4 q=44.1 size=    1536KiB time=00:00:04.30 bitrate=2926.3kbits/s speed=0.0145x elapsed=0:04:57.27    \nframe=  131 fps=0.4 q=44.1 size=    1536KiB time=00:00:04.30 bitrate=2926.3kbits/s speed=0.0144x elapsed=0:04:57.78    \nframe=  131 fps=0.4 q=44.1 size=    1536KiB time=00:00:04.30 bitrate=2926.3kbits/s speed=0.0144x elapsed=0:04:58.29    \nframe=  131 fps=0.4 q=44.1 size=    1536KiB time=00:00:04.30 bitrate=2926.3kbits/s speed=0.0144x elapsed=0:04:58.81    \nframe=  131 fps=0.4 q=44.1 size=    1536KiB time=00:00:04.30 bitrate=2926.3kbits/s speed=0.0144x elapsed=0:04:59.33    \nframe=  131 fps=0.4 q=44.1 size=    1536KiB time=00:00:04.30 bitrate=2926.3kbits/s speed=0.0143x elapsed=0:04:59.83    \nframe=  131 fps=0.4 q=44.1 size=    1536KiB time=00:00:04.30 bitrate=2926.3kbits/s speed=0.0143x elapsed=0:05:00.36    \nframe=  131 fps=0.4 q=44.1 size=    1536KiB time=00:00:04.30 bitrate=2926.3kbits/s speed=0.0143x elapsed=0:05:00.88    \nframe=  131 fps=0.4 q=44.1 size=    1536KiB time=00:00:04.30 bitrate=2926.3kbits/s speed=0.0143x elapsed=0:05:01.38    \nframe=  131 fps=0.4 q=44.1 size=    1536KiB time=00:00:04.30 bitrate=2926.3kbits/s speed=0.0142x elapsed=0:05:01.90    \nframe=  131 fps=0.4 q=44.1 size=    1536KiB time=00:00:04.30 bitrate=2926.3kbits/s speed=0.0142x elapsed=0:05:02.42    \nframe=  131 fps=0.4 q=44.1 size=    1536KiB time=00:00:04.30 bitrate=2926.3kbits/s speed=0.0142x elapsed=0:05:02.93    \nframe=  131 fps=0.4 q=44.1 size=    1536KiB time=00:00:04.30 bitrate=2926.3kbits/s speed=0.0142x elapsed=0:05:03.45    \nframe=  131 fps=0.4 q=44.1 size=    1536KiB time=00:00:04.30 bitrate=2926.3kbits/s speed=0.0141x elapsed=0:05:03.96    \nframe=  131 fps=0.4 q=44.1 size=    1536KiB time=00:00:04.30 bitrate=2926.3kbits/s speed=0.0141x elapsed=0:05:04.48    \nframe=  131 fps=0.4 q=44.1 size=    1536KiB time=00:00:04.30 bitrate=2926.3kbits/s speed=0.0141x elapsed=0:05:05.00    \nframe=  132 fps=0.4 q=38.9 size=    1536KiB time=00:00:04.33 bitrate=2903.8kbits/s speed=0.0142x elapsed=0:05:05.51    \nframe=  132 fps=0.4 q=38.9 size=    1536KiB time=00:00:04.33 bitrate=2903.8kbits/s speed=0.0142x elapsed=0:05:06.02    \nframe=  132 fps=0.4 q=38.9 size=    1536KiB time=00:00:04.33 bitrate=2903.8kbits/s speed=0.0141x elapsed=0:05:06.54    \nframe=  132 fps=0.4 q=38.9 size=    1536KiB time=00:00:04.33 bitrate=2903.8kbits/s speed=0.0141x elapsed=0:05:07.06    \nframe=  133 fps=0.4 q=42.0 size=    1536KiB time=00:00:04.36 bitrate=2881.7kbits/s speed=0.0142x elapsed=0:05:07.57    \nframe=  133 fps=0.4 q=42.0 size=    1536KiB time=00:00:04.36 bitrate=2881.7kbits/s speed=0.0142x elapsed=0:05:08.09    \nframe=  133 fps=0.4 q=42.0 size=    1536KiB time=00:00:04.36 bitrate=2881.7kbits/s speed=0.0141x elapsed=0:05:08.61    \nframe=  134 fps=0.4 q=44.3 size=    1536KiB time=00:00:04.40 bitrate=2859.8kbits/s speed=0.0142x elapsed=0:05:09.12    \nframe=  134 fps=0.4 q=44.3 size=    1536KiB time=00:00:04.40 bitrate=2859.8kbits/s speed=0.0142x elapsed=0:05:09.64    \nframe=  135 fps=0.4 q=44.4 size=    1536KiB time=00:00:04.43 bitrate=2838.3kbits/s speed=0.0143x elapsed=0:05:10.16    \nframe=  135 fps=0.4 q=44.4 size=    1536KiB time=00:00:04.43 bitrate=2838.3kbits/s speed=0.0143x elapsed=0:05:10.66    \nframe=  135 fps=0.4 q=44.4 size=    1536KiB time=00:00:04.43 bitrate=2838.3kbits/s speed=0.0142x elapsed=0:05:11.19    \nframe=  136 fps=0.4 q=39.1 size=    1536KiB time=00:00:04.46 bitrate=2817.1kbits/s speed=0.0143x elapsed=0:05:11.71    \nframe=  136 fps=0.4 q=39.1 size=    1536KiB time=00:00:04.46 bitrate=2817.1kbits/s speed=0.0143x elapsed=0:05:12.23    \nframe=  136 fps=0.4 q=39.1 size=    1536KiB time=00:00:04.46 bitrate=2817.1kbits/s speed=0.0143x elapsed=0:05:12.79    \nframe=  136 fps=0.4 q=39.1 size=    1536KiB time=00:00:04.46 bitrate=2817.1kbits/s speed=0.0143x elapsed=0:05:13.33    \nframe=  137 fps=0.4 q=42.9 size=    1536KiB time=00:00:04.50 bitrate=2796.3kbits/s speed=0.0143x elapsed=0:05:13.85    \nframe=  137 fps=0.4 q=42.9 size=    1536KiB time=00:00:04.50 bitrate=2796.3kbits/s speed=0.0143x elapsed=0:05:14.41    \nframe=  137 fps=0.4 q=42.9 size=    1536KiB time=00:00:04.50 bitrate=2796.3kbits/s speed=0.0143x elapsed=0:05:15.04    \nframe=  138 fps=0.4 q=44.3 size=    1536KiB time=00:00:04.53 bitrate=2775.7kbits/s speed=0.0144x elapsed=0:05:15.57    \nframe=  138 fps=0.4 q=44.3 size=    1536KiB time=00:00:04.53 bitrate=2775.7kbits/s speed=0.0143x elapsed=0:05:16.09    \nframe=  139 fps=0.4 q=44.5 size=    1536KiB time=00:00:04.56 bitrate=2755.5kbits/s speed=0.0144x elapsed=0:05:16.61    \nframe=  139 fps=0.4 q=44.5 size=    1536KiB time=00:00:04.56 bitrate=2755.5kbits/s speed=0.0144x elapsed=0:05:17.13    \nframe=  140 fps=0.4 q=44.5 size=    1536KiB time=00:00:04.60 bitrate=2735.5kbits/s speed=0.0145x elapsed=0:05:17.64    \nframe=  140 fps=0.4 q=44.5 size=    1536KiB time=00:00:04.60 bitrate=2735.5kbits/s speed=0.0145x elapsed=0:05:18.17    \nframe=  140 fps=0.4 q=44.5 size=    1536KiB time=00:00:04.60 bitrate=2735.5kbits/s speed=0.0144x elapsed=0:05:18.69    \nframe=  140 fps=0.4 q=44.5 size=    1536KiB time=00:00:04.60 bitrate=2735.5kbits/s speed=0.0144x elapsed=0:05:19.22    \nframe=  141 fps=0.4 q=39.5 size=    1536KiB time=00:00:04.60 bitrate=2735.5kbits/s speed=0.0144x elapsed=0:05:19.78    \nframe=  141 fps=0.4 q=39.5 size=    1536KiB time=00:00:04.63 bitrate=2715.8kbits/s speed=0.0145x elapsed=0:05:20.35    \nframe=  142 fps=0.4 q=43.0 size=    1536KiB time=00:00:04.66 bitrate=2696.4kbits/s speed=0.0145x elapsed=0:05:20.87    \nframe=  142 fps=0.4 q=43.0 size=    1536KiB time=00:00:04.66 bitrate=2696.4kbits/s speed=0.0145x elapsed=0:05:21.41    \nframe=  142 fps=0.4 q=43.0 size=    1536KiB time=00:00:04.66 bitrate=2696.4kbits/s speed=0.0145x elapsed=0:05:21.91    \nframe=  143 fps=0.4 q=44.0 size=    1536KiB time=00:00:04.70 bitrate=2677.3kbits/s speed=0.0146x elapsed=0:05:22.45    \nframe=  143 fps=0.4 q=44.0 size=    1536KiB time=00:00:04.70 bitrate=2677.3kbits/s speed=0.0146x elapsed=0:05:22.98    \nframe=  144 fps=0.4 q=44.2 size=    1536KiB time=00:00:04.73 bitrate=2658.4kbits/s speed=0.0146x elapsed=0:05:23.53    \nframe=  144 fps=0.4 q=44.2 size=    1536KiB time=00:00:04.73 bitrate=2658.4kbits/s speed=0.0146x elapsed=0:05:24.04    \nframe=  144 fps=0.4 q=44.2 size=    1536KiB time=00:00:04.73 bitrate=2658.4kbits/s speed=0.0146x elapsed=0:05:24.55    \nframe=  145 fps=0.4 q=44.2 size=    1536KiB time=00:00:04.76 bitrate=2639.8kbits/s speed=0.0147x elapsed=0:05:25.07    \nframe=  145 fps=0.4 q=44.2 size=    1536KiB time=00:00:04.76 bitrate=2639.8kbits/s speed=0.0146x elapsed=0:05:25.60    \nframe=  146 fps=0.4 q=41.6 size=    1536KiB time=00:00:04.80 bitrate=2621.5kbits/s speed=0.0147x elapsed=0:05:26.13    \nframe=  146 fps=0.4 q=41.6 size=    1536KiB time=00:00:04.80 bitrate=2621.5kbits/s speed=0.0147x elapsed=0:05:26.66    \nframe=  147 fps=0.4 q=41.5 size=    1536KiB time=00:00:04.83 bitrate=2603.4kbits/s speed=0.0148x elapsed=0:05:27.18    \nframe=  147 fps=0.4 q=41.5 size=    1536KiB time=00:00:04.83 bitrate=2603.4kbits/s speed=0.0147x elapsed=0:05:27.71    \nframe=  147 fps=0.4 q=41.5 size=    1536KiB time=00:00:04.83 bitrate=2603.4kbits/s speed=0.0147x elapsed=0:05:28.23    \n[mp4 @ 0000022a39bd9740] Starting second pass: moving the moov atom to the beginning of the file\n[out#0/mp4 @ 0000022a39bcab00] video:1817KiB audio:0KiB subtitle:0KiB other streams:0KiB global headers:2KiB muxing overhead: 0.284605%\nframe=  150 fps=0.5 q=44.5 Lsize=    1822KiB time=00:00:04.93 bitrate=3026.1kbits/s speed=0.015x elapsed=0:05:28.46    \nx265 [info]: frame I:      1, Avg QP:37.75  kb/s: 14821.92\nx265 [info]: frame P:     36, Avg QP:38.94  kb/s: 7502.55 \nx265 [info]: frame B:    113, Avg QP:43.85  kb/s: 1429.55 \nx265 [info]: Weighted P-Frames: Y:0.0% UV:0.0%\n\nencoded 150 frames in 327.71s (0.46 fps), 2976.36 kb/s, Avg QP:42.63\n",
  "seconds": 328.93593978881836,
  "probe_out": {}
}